<?xml version="1.0" encoding="UTF-8" standalone="no"?>
<svg width="100%" height="100%" viewBox="0 0 600 480" xmlns="http://www.w3.org/2000/svg" xmlns:xlink="http://www.w3.org/1999/xlink">
<desc>Produced by GNUPLOT 4.0 patchlevel 0 </desc>

<defs>


	<circle id="gpDot" r="1"/>
	<path id="gpPt0" style="stroke-width:0.222" d="M-1,0 h2 M0,-1 v2"/>
	<path id="gpPt1" style="stroke-width:0.222" d="M-1,-1 L1,1 M1,-1 L-1,1"/>
	<path id="gpPt2" style="stroke-width:0.222" d="M-1,0 L1,0 M0,-1 L0,1 M-1,-1 L1,1 M-1,1 L1,-1"/>
	<rect id="gpPt3" style="stroke-width:0.222" x="-1" y="-1" width="2" height="2"/>
	<use xlink:href="#gpPt3" id="gpPt4" style="fill:currentColor; stroke:none"/>
	<circle id="gpPt5" style="stroke-width:0.222" cx="0" cy="0" r="1"/>
	<use xlink:href="#gpPt5" id="gpPt6" style="fill:currentColor; stroke:none"/>
	<path id="gpPt7" style="stroke-width:0.222" d="M0,-1.33 L-1.33,0.67 L1.33,0.67 z"/>
	<use xlink:href="#gpPt7" id="gpPt8" style="fill:currentColor; stroke:none"/>
	<use xlink:href="#gpPt7" id="gpPt9" transform="rotate(180)"/>
	<use xlink:href="#gpPt9" id="gpPt10" style="fill:currentColor; stroke:none"/>
	<use xlink:href="#gpPt3" id="gpPt11" transform="rotate(45)"/>
	<use xlink:href="#gpPt11" id="gpPt12" style="fill:currentColor; stroke:none"/>
</defs>
<g style="fill:none; color:black; stroke:currentColor; stroke-width:1.00">
	<path d="M83,426 L92,426 M575,426 L566,426 "/>
	<g transform="translate(75,430)" style="stroke:none; fill:black; font-family:Arial; font-size:12.00; text-anchor:end">
		<text> 0</text>
	</g>
	<path d="M83,367 L92,367 M575,367 L566,367 "/>
	<g transform="translate(75,371)" style="stroke:none; fill:black; font-family:Arial; font-size:12.00; text-anchor:end">
		<text> 0.05</text>
	</g>
	<path d="M83,309 L92,309 M575,309 L566,309 "/>
	<g transform="translate(75,313)" style="stroke:none; fill:black; font-family:Arial; font-size:12.00; text-anchor:end">
		<text> 0.1</text>
	</g>
	<path d="M83,250 L92,250 M575,250 L566,250 "/>
	<g transform="translate(75,254)" style="stroke:none; fill:black; font-family:Arial; font-size:12.00; text-anchor:end">
		<text> 0.15</text>
	</g>
	<path d="M83,192 L92,192 M575,192 L566,192 "/>
	<g transform="translate(75,196)" style="stroke:none; fill:black; font-family:Arial; font-size:12.00; text-anchor:end">
		<text> 0.2</text>
	</g>
	<path d="M83,133 L92,133 M575,133 L566,133 "/>
	<g transform="translate(75,137)" style="stroke:none; fill:black; font-family:Arial; font-size:12.00; text-anchor:end">
		<text> 0.25</text>
	</g>
	<path d="M83,75 L92,75 M575,75 L566,75 "/>
	<g transform="translate(75,79)" style="stroke:none; fill:black; font-family:Arial; font-size:12.00; text-anchor:end">
		<text> 0.3</text>
	</g>
	<path d="M83,16 L92,16 M575,16 L566,16 "/>
	<g transform="translate(75,20)" style="stroke:none; fill:black; font-family:Arial; font-size:12.00; text-anchor:end">
		<text> 0.35</text>
	</g>
	<path d="M83,426 L83,417 M83,16 L83,25 "/>
	<g transform="translate(83,448)" style="stroke:none; fill:black; font-family:Arial; font-size:12.00; text-anchor:middle">
		<text> 1</text>
	</g>
	<path d="M145,426 L145,417 M145,16 L145,25 "/>
	<g transform="translate(145,448)" style="stroke:none; fill:black; font-family:Arial; font-size:12.00; text-anchor:middle">
		<text> 2</text>
	</g>
	<path d="M206,426 L206,417 M206,16 L206,25 "/>
	<g transform="translate(206,448)" style="stroke:none; fill:black; font-family:Arial; font-size:12.00; text-anchor:middle">
		<text> 3</text>
	</g>
	<path d="M268,426 L268,417 M268,16 L268,25 "/>
	<g transform="translate(268,448)" style="stroke:none; fill:black; font-family:Arial; font-size:12.00; text-anchor:middle">
		<text> 4</text>
	</g>
	<path d="M329,426 L329,417 M329,16 L329,25 "/>
	<g transform="translate(329,448)" style="stroke:none; fill:black; font-family:Arial; font-size:12.00; text-anchor:middle">
		<text> 5</text>
	</g>
	<path d="M391,426 L391,417 M391,16 L391,25 "/>
	<g transform="translate(391,448)" style="stroke:none; fill:black; font-family:Arial; font-size:12.00; text-anchor:middle">
		<text> 6</text>
	</g>
	<path d="M452,426 L452,417 M452,16 L452,25 "/>
	<g transform="translate(452,448)" style="stroke:none; fill:black; font-family:Arial; font-size:12.00; text-anchor:middle">
		<text> 7</text>
	</g>
	<path d="M514,426 L514,417 M514,16 L514,25 "/>
	<g transform="translate(514,448)" style="stroke:none; fill:black; font-family:Arial; font-size:12.00; text-anchor:middle">
		<text> 8</text>
	</g>
	<path d="M575,426 L575,417 M575,16 L575,25 "/>
	<g transform="translate(575,448)" style="stroke:none; fill:black; font-family:Arial; font-size:12.00; text-anchor:middle">
		<text> 9</text>
	</g>
	<path d="M83,426 L575,426 L575,16 L83,16 L83,426 "/>
	<g transform="translate(22,221) rotate(-90)" style="stroke:none; fill:black; font-family:Arial; font-size:12.00; text-anchor:middle">
		<text>Frequency</text>
	</g>
	<g transform="translate(329,475)" style="stroke:none; fill:black; font-family:Arial; font-size:12.00; text-anchor:middle">
		<text>First Digit</text>
	</g>
	<path d="M366,79 L366,25 L567,25 L567,79 L366,79 M366,25 L567,25 "/>
</g>
<g style="fill:none; color:black; stroke:currentColor; stroke-width:2.00">
</g>
<g style="fill:none; color:red; stroke:currentColor; stroke-width:2.00">
</g>
<g style="fill:none; color:black; stroke:currentColor; stroke-width:2.00">
	<g transform="translate(510,42)" style="stroke:none; fill:black; font-family:Arial; font-size:12.00; text-anchor:end">
		<text>Benford's Law</text>
	</g>
</g>
<g style="fill:none; color:red; stroke:currentColor; stroke-width:2.00">
	<path d="M518,38 L559,38 M83,73 L88,93 L93,110 L98,126 L103,140 L108,152 L113,164 L118,175    L123,185 L128,194 L133,202 L138,210 L143,217 L148,224 L153,230 L158,236 L163,242 L167,247    L172,252 L177,257 L182,261 L187,266 L192,270 L197,273 L202,277 L207,280 L212,284 L217,287    L222,290 L227,293 L232,296 L237,298 L242,301 L247,303 L252,306 L257,308 L262,310 L267,312    L272,314 L277,316 L282,318 L287,320 L292,322 L297,323 L302,325 L307,327 L312,328 L317,330    L322,331 L327,333 L331,334 L336,335 L341,337 L346,338 L351,339 L356,340 L361,341 L366,342    L371,344 L376,345 L381,346 L386,347 L391,348 L396,349 L401,350 L406,351 L411,351 L416,352    L421,353 L426,354 L431,355 L436,356 L441,356 L446,357 L451,358 L456,359 L461,359 L466,360    L471,361 L476,361 L481,362 L486,363 L491,363 L495,364 L500,365 L505,365 L510,366 L515,366    L520,367 L525,367 L530,368 L535,368 L540,369 L545,370 L550,370 L555,371 L560,371 L565,371    L570,372 L575,372 "/>
</g>
<g style="fill:none; color:green; stroke:currentColor; stroke-width:2.00">
</g>
<g style="fill:none; color:black; stroke:currentColor; stroke-width:2.00">
	<g transform="translate(510,69)" style="stroke:none; fill:black; font-family:Arial; font-size:12.00; text-anchor:end">
		<text>Physical Constants</text>
	</g>
</g>
<g style="fill:none; color:green; stroke:currentColor; stroke-width:2.00">
	<path d="M518,65 L559,65 M83,27 L145,210 L206,318 L268,329 L329,325 L391,340 L452,386 L514,365    L575,361 "/>
	<use xlink:href="#gpPt4" transform="translate(83,27) scale(4.50)"/>
	<use xlink:href="#gpPt4" transform="translate(145,210) scale(4.50)"/>
	<use xlink:href="#gpPt4" transform="translate(206,318) scale(4.50)"/>
	<use xlink:href="#gpPt4" transform="translate(268,329) scale(4.50)"/>
	<use xlink:href="#gpPt4" transform="translate(329,325) scale(4.50)"/>
	<use xlink:href="#gpPt4" transform="translate(391,340) scale(4.50)"/>
	<use xlink:href="#gpPt4" transform="translate(452,386) scale(4.50)"/>
	<use xlink:href="#gpPt4" transform="translate(514,365) scale(4.50)"/>
	<use xlink:href="#gpPt4" transform="translate(575,361) scale(4.50)"/>
	<use xlink:href="#gpPt4" transform="translate(538,65) scale(4.50)"/>
</g>
<g style="fill:none; color:green; stroke:currentColor; stroke-width:1.00">
</g>
<g style="fill:none; color:black; stroke:currentColor; stroke-width:1.00">
	<path d="M83,426 L575,426 L575,16 L83,16 L83,426 "/>
</g>
</svg>