<?xml version="1.0" encoding="UTF-8" standalone="no"?>
<svg xmlns:dc="http://purl.org/dc/elements/1.1/" xmlns:cc="http://creativecommons.org/ns#" xmlns:rdf="http://www.w3.org/1999/02/22-rdf-syntax-ns#" xmlns:svg="http://www.w3.org/2000/svg" xmlns="http://www.w3.org/2000/svg" xmlns:xlink="http://www.w3.org/1999/xlink" xmlns:sodipodi="http://sodipodi.sourceforge.net/DTD/sodipodi-0.dtd" xmlns:inkscape="http://www.inkscape.org/namespaces/inkscape" width="800" height="600" viewBox="0 0 800 600" id="svg3157" version="1.1" inkscape:version="0.48.4 r9939" sodipodi:docname="degenerate.svg">
  <metadata id="metadata3327">
    <rdf:RDF>
      <cc:Work rdf:about="">
        <dc:format>image/svg+xml</dc:format>
        <dc:type rdf:resource="http://purl.org/dc/dcmitype/StillImage"/>
      </cc:Work>
    </rdf:RDF>
  </metadata>
  <sodipodi:namedview pagecolor="#ffffff" bordercolor="#666666" borderopacity="1" objecttolerance="10" gridtolerance="10" guidetolerance="10" inkscape:pageopacity="0" inkscape:pageshadow="2" inkscape:window-width="1366" inkscape:window-height="706" id="namedview3325" showgrid="false" inkscape:zoom="0.765" inkscape:cx="439.21569" inkscape:cy="300" inkscape:window-x="-8" inkscape:window-y="-8" inkscape:window-maximized="1" inkscape:current-layer="svg3157"/>
  <desc id="desc3159">Produced by GNUPLOT 4.2 patchlevel 6  </desc>
  <defs id="defs3161">
    <circle id="gpDot" r="0.5" stroke-width="0.5"/>
    <path id="gpPt0" stroke-width="0.111" stroke="currentColor" d="M-1,0 h2 M0,-1 v2"/>
    <path id="gpPt1" stroke-width="0.111" stroke="currentColor" d="M-1,-1 L1,1 M1,-1 L-1,1"/>
    <path id="gpPt2" stroke-width="0.111" stroke="currentColor" d="M-1,0 L1,0 M0,-1 L0,1 M-1,-1 L1,1 M-1,1 L1,-1"/>
    <rect id="gpPt3" stroke-width="0.111" stroke="currentColor" x="-1" y="-1" width="2" height="2"/>
    <rect id="gpPt4" stroke-width="0.111" stroke="currentColor" fill="currentColor" x="-1" y="-1" width="2" height="2"/>
    <circle id="gpPt5" stroke-width="0.111" stroke="currentColor" cx="0" cy="0" r="1"/>
    <use xlink:href="#gpPt5" id="gpPt6" fill="currentColor" stroke="none"/>
    <path id="gpPt7" stroke-width="0.111" stroke="currentColor" d="M0,-1.33 L-1.33,0.67 L1.33,0.67 z"/>
    <use xlink:href="#gpPt7" id="gpPt8" fill="currentColor" stroke="none"/>
    <use xlink:href="#gpPt7" id="gpPt9" stroke="currentColor" transform="rotate(180)"/>
    <use xlink:href="#gpPt9" id="gpPt10" fill="currentColor" stroke="none"/>
    <use xlink:href="#gpPt3" id="gpPt11" stroke="currentColor" transform="rotate(45)"/>
    <use xlink:href="#gpPt11" id="gpPt12" fill="currentColor" stroke="none"/>
  </defs>
  <g style="fill:none; color:white; stroke:currentColor; stroke-width:1.00; stroke-linecap:butt; stroke-linejoin:miter" id="g3177"/>
  <g style="fill:none; color:black; stroke:currentColor; stroke-width:1.00; stroke-linecap:butt; stroke-linejoin:miter" id="g3179">
    <path d="M141.9,528.0 L159.9,528.0 M758.2,528.0 L740.2,528.0 " id="path3181"/>
    <g transform="translate(125.2,537.0)" style="stroke:none; fill:black; font-family:Arial; font-size:24.00pt; text-anchor:end" id="g3183">
      <text id="text3185">
        <tspan id="tspan3187">-0.2</tspan>
      </text>
    </g>
    <path d="M141.9,457.3 L159.9,457.3 M758.2,457.3 L740.2,457.3 " id="path3189"/>
    <g transform="translate(125.2,466.3)" style="stroke:none; fill:black; font-family:Arial; font-size:24.00pt; text-anchor:end" id="g3191">
      <text id="text3193">
        <tspan id="tspan3195"> 0</tspan>
      </text>
    </g>
    <path d="M141.9,386.7 L159.9,386.7 M758.2,386.7 L740.2,386.7 " id="path3197"/>
    <g transform="translate(125.2,395.7)" style="stroke:none; fill:black; font-family:Arial; font-size:24.00pt; text-anchor:end" id="g3199">
      <text id="text3201">
        <tspan id="tspan3203"> 0.2</tspan>
      </text>
    </g>
    <path d="M141.9,316.0 L159.9,316.0 M758.2,316.0 L740.2,316.0 " id="path3205"/>
    <g transform="translate(125.2,325.0)" style="stroke:none; fill:black; font-family:Arial; font-size:24.00pt; text-anchor:end" id="g3207">
      <text id="text3209">
        <tspan id="tspan3211"> 0.4</tspan>
      </text>
    </g>
    <path d="M141.9,245.4 L159.9,245.4 M758.2,245.4 L740.2,245.4 " id="path3213"/>
    <g transform="translate(125.2,254.4)" style="stroke:none; fill:black; font-family:Arial; font-size:24.00pt; text-anchor:end" id="g3215">
      <text id="text3217">
        <tspan id="tspan3219"> 0.6</tspan>
      </text>
    </g>
    <path d="M141.9,174.7 L159.9,174.7 M758.2,174.7 L740.2,174.7 " id="path3221"/>
    <g transform="translate(125.2,183.7)" style="stroke:none; fill:black; font-family:Arial; font-size:24.00pt; text-anchor:end" id="g3223">
      <text id="text3225">
        <tspan id="tspan3227"> 0.8</tspan>
      </text>
    </g>
    <path d="M141.9,104.1 L159.9,104.1 M758.2,104.1 L740.2,104.1 " id="path3229"/>
    <g transform="translate(125.2,113.1)" style="stroke:none; fill:black; font-family:Arial; font-size:24.00pt; text-anchor:end" id="g3231">
      <text id="text3233">
        <tspan id="tspan3235"> 1</tspan>
      </text>
    </g>
    <path d="M141.9,33.4 L159.9,33.4 M758.2,33.4 L740.2,33.4 " id="path3237"/>
    <g transform="translate(125.2,42.4)" style="stroke:none; fill:black; font-family:Arial; font-size:24.00pt; text-anchor:end" id="g3239">
      <text id="text3241">
        <tspan id="tspan3243"> 1.2</tspan>
      </text>
    </g>
    <path d="M141.9,528.0 L141.9,510.0 M141.9,33.4 L141.9,51.4 " id="path3245"/>
    <g transform="translate(141.9,573.0)" style="stroke:none; fill:black; font-family:Arial; font-size:24.00pt; text-anchor:middle" id="g3247">
      <text id="text3249">
        <tspan id="tspan3251">-4</tspan>
      </text>
    </g>
    <path d="M218.9,528.0 L218.9,510.0 M218.9,33.4 L218.9,51.4 " id="path3253"/>
    <g transform="translate(218.9,573.0)" style="stroke:none; fill:black; font-family:Arial; font-size:24.00pt; text-anchor:middle" id="g3255">
      <text id="text3257">
        <tspan id="tspan3259">-3</tspan>
      </text>
    </g>
    <path d="M296.0,528.0 L296.0,510.0 M296.0,33.4 L296.0,51.4 " id="path3261"/>
    <g transform="translate(296.0,573.0)" style="stroke:none; fill:black; font-family:Arial; font-size:24.00pt; text-anchor:middle" id="g3263">
      <text id="text3265">
        <tspan id="tspan3267">-2</tspan>
      </text>
    </g>
    <path d="M373.0,528.0 L373.0,510.0 M373.0,33.4 L373.0,51.4 " id="path3269"/>
    <g transform="translate(373.0,573.0)" style="stroke:none; fill:black; font-family:Arial; font-size:24.00pt; text-anchor:middle" id="g3271">
      <text id="text3273">
        <tspan id="tspan3275">-1</tspan>
      </text>
    </g>
    <path d="M450.1,528.0 L450.1,510.0 M450.1,33.4 L450.1,51.4 " id="path3277"/>
    <g transform="translate(450.1,573.0)" style="stroke:none; fill:black; font-family:Arial; font-size:24.00pt; text-anchor:middle" id="g3279">
      <text id="text3281">
        <tspan id="tspan3283"> 0</tspan>
      </text>
    </g>
    <path d="M527.1,528.0 L527.1,510.0 M527.1,33.4 L527.1,51.4 " id="path3285"/>
    <g transform="translate(527.1,573.0)" style="stroke:none; fill:black; font-family:Arial; font-size:24.00pt; text-anchor:middle" id="g3287">
      <text id="text3289">
        <tspan id="tspan3291"> 1</tspan>
      </text>
    </g>
    <path d="M604.1,528.0 L604.1,510.0 M604.1,33.4 L604.1,51.4 " id="path3293"/>
    <g transform="translate(604.1,573.0)" style="stroke:none; fill:black; font-family:Arial; font-size:24.00pt; text-anchor:middle" id="g3295">
      <text id="text3297">
        <tspan id="tspan3299"> 2</tspan>
      </text>
    </g>
    <path d="M681.2,528.0 L681.2,510.0 M681.2,33.4 L681.2,51.4 " id="path3301"/>
    <g transform="translate(681.2,573.0)" style="stroke:none; fill:black; font-family:Arial; font-size:24.00pt; text-anchor:middle" id="g3303">
      <text id="text3305">
        <tspan id="tspan3307"> 3</tspan>
      </text>
    </g>
    <path d="M758.2,528.0 L758.2,510.0 M758.2,33.4 L758.2,51.4 " id="path3309"/>
    <g transform="translate(758.2,573.0)" style="stroke:none; fill:black; font-family:Arial; font-size:24.00pt; text-anchor:middle" id="g3311">
      <text id="text3313">
        <tspan id="tspan3315"> 4</tspan>
      </text>
    </g>
    <path d="M141.9,33.4 L141.9,528.0 L758.2,528.0 L758.2,33.4 L141.9,33.4 Z " id="path3317"/>
  </g>
  <g style="fill:none; color:red; stroke:currentColor; stroke-width:1.00; stroke-linecap:butt; stroke-linejoin:miter" id="g3319"/>
  <g style="fill:none; color:black; stroke:currentColor; stroke-width:1.00; stroke-linecap:butt; stroke-linejoin:miter" id="g3321">
    <path d="M141.9,33.4 L141.9,528.0 L758.2,528.0 L758.2,33.4 L141.9,33.4 Z " id="path3323"/>
  </g>
  <path sodipodi:type="arc" style="fill:none;stroke:#0000ff;stroke-width:2.10818505;stroke-miterlimit:4;stroke-opacity:1;stroke-dasharray:none" id="path4101" sodipodi:cx="411.76471" sodipodi:cy="303.26797" sodipodi:rx="26.143791" sodipodi:ry="23.529411" d="m 437.9085,303.26797 a 26.143791,23.529411 0 1 1 -0.001,-0.23176" sodipodi:start="0" sodipodi:end="6.2733351" sodipodi:open="true" transform="matrix(0.32911277,0,0,0.42123639,312.30258,329.11524)"/>
  <path sodipodi:type="arc" style="fill:#0000ff;stroke:#0000ff;stroke-width:2.10818504999999990;stroke-miterlimit:4;stroke-opacity:1;stroke-dasharray:none;fill-opacity:1" id="path4101-1" sodipodi:cx="411.76471" sodipodi:cy="303.26797" sodipodi:rx="26.143791" sodipodi:ry="23.529411" d="m 437.9085,303.26797 a 26.143791,23.529411 0 1 1 -0.001,-0.23176" sodipodi:start="0" sodipodi:end="6.2733351" sodipodi:open="true" transform="matrix(0.32911277,0,0,0.42123639,238.33918,329.76883)"/>
  <path sodipodi:type="arc" style="fill:#0000ff;fill-opacity:1;stroke:#0000ff;stroke-width:2.10818505;stroke-miterlimit:4;stroke-opacity:1;stroke-dasharray:none" id="path4101-1-7" sodipodi:cx="411.76471" sodipodi:cy="303.26797" sodipodi:rx="26.143791" sodipodi:ry="23.529411" d="m 437.9085,303.26797 a 26.143791,23.529411 0 1 1 -0.001,-0.23176" sodipodi:start="0" sodipodi:end="6.2733351" sodipodi:open="true" transform="matrix(0.32911277,0,0,0.42123639,159.90781,329.15445)"/>
  <path sodipodi:type="arc" style="fill:#0000ff;fill-opacity:1;stroke:#0000ff;stroke-width:2.10818505;stroke-miterlimit:4;stroke-opacity:1;stroke-dasharray:none" id="path4101-1-4" sodipodi:cx="411.76471" sodipodi:cy="303.26797" sodipodi:rx="26.143791" sodipodi:ry="23.529411" d="m 437.9085,303.26797 a 26.143791,23.529411 0 1 1 -0.001,-0.23176" sodipodi:start="0" sodipodi:end="6.2733351" sodipodi:open="true" transform="matrix(0.32911277,0,0,0.42123639,82.783626,329.76883)"/>
  <path sodipodi:type="arc" style="fill:#0000ff;fill-opacity:1;stroke:#0000ff;stroke-width:2.10818505;stroke-miterlimit:4;stroke-opacity:1;stroke-dasharray:none" id="path4101-1-0" sodipodi:cx="411.76471" sodipodi:cy="303.26797" sodipodi:rx="26.143791" sodipodi:ry="23.529411" d="m 437.9085,303.26797 a 26.143791,23.529411 0 1 1 -0.001,-0.23176" sodipodi:start="0" sodipodi:end="6.2733351" sodipodi:open="true" transform="matrix(0.32911277,0,0,0.42123639,7.5810156,328.46164)"/>
  <path sodipodi:type="arc" style="fill:#0000ff;stroke:#0000ff;stroke-width:2.10818504999999990;stroke-miterlimit:4;stroke-opacity:1;stroke-dasharray:none;fill-opacity:1" id="path4101-9" sodipodi:cx="411.76471" sodipodi:cy="303.26797" sodipodi:rx="26.143791" sodipodi:ry="23.529411" d="m 437.9085,303.26797 a 26.143791,23.529411 0 1 1 -0.001,-0.23176" sodipodi:start="0" sodipodi:end="6.2733351" sodipodi:open="true" transform="matrix(0.32911277,0,0,0.42123639,620.76532,-23.17234)"/>
  <path sodipodi:type="arc" style="fill:#0000ff;fill-opacity:1;stroke:#0000ff;stroke-width:2.10818505;stroke-miterlimit:4;stroke-opacity:1;stroke-dasharray:none" id="path4101-1-48" sodipodi:cx="411.76471" sodipodi:cy="303.26797" sodipodi:rx="26.143791" sodipodi:ry="23.529411" d="m 437.9085,303.26797 a 26.143791,23.529411 0 1 1 -0.001,-0.23176" sodipodi:start="0" sodipodi:end="6.2733351" sodipodi:open="true" transform="matrix(0.32911277,0,0,0.42123639,546.80192,-22.51875)"/>
  <path sodipodi:type="arc" style="fill:#0000ff;fill-opacity:1;stroke:#0000ff;stroke-width:2.10818505;stroke-miterlimit:4;stroke-opacity:1;stroke-dasharray:none" id="path4101-1-7-8" sodipodi:cx="411.76471" sodipodi:cy="303.26797" sodipodi:rx="26.143791" sodipodi:ry="23.529411" d="m 437.9085,303.26797 a 26.143791,23.529411 0 1 1 -0.001,-0.23176" sodipodi:start="0" sodipodi:end="6.2733351" sodipodi:open="true" transform="matrix(0.32911277,0,0,0.42123639,468.37056,-23.13313)"/>
  <path sodipodi:type="arc" style="fill:#0000ff;fill-opacity:1;stroke:#0000ff;stroke-width:2.10818505;stroke-miterlimit:4;stroke-opacity:1;stroke-dasharray:none" id="path4101-1-4-2" sodipodi:cx="411.76471" sodipodi:cy="303.26797" sodipodi:rx="26.143791" sodipodi:ry="23.529411" d="m 437.9085,303.26797 a 26.143791,23.529411 0 1 1 -0.001,-0.23176" sodipodi:start="0" sodipodi:end="6.2733351" sodipodi:open="true" transform="matrix(0.32911277,0,0,0.42123639,391.24637,-22.51875)"/>
  <path sodipodi:type="arc" style="fill:#0000ff;fill-opacity:1;stroke:#0000ff;stroke-width:2.10818505;stroke-miterlimit:4;stroke-opacity:1;stroke-dasharray:none" id="path4101-1-0-4" sodipodi:cx="411.76471" sodipodi:cy="303.26797" sodipodi:rx="26.143791" sodipodi:ry="23.529411" d="m 437.9085,303.26797 a 26.143791,23.529411 0 1 1 -0.001,-0.23176" sodipodi:start="0" sodipodi:end="6.2733351" sodipodi:open="true" transform="matrix(0.32911277,0,0,0.42123639,314.04376,-23.82594)"/>
  <path style="fill:none;stroke:#0000ff;stroke-width:3;stroke-linecap:butt;stroke-linejoin:miter;stroke-miterlimit:4;stroke-opacity:1;stroke-dasharray:18,18;stroke-dashoffset:0" d="m 448.98039,99.96078 c 0,345.09804 0,345.09804 0,345.09804" id="path4183" inkscape:connector-curvature="0"/>
  <path style="fill:#0000ff;fill-opacity:1;stroke:#0000ff;stroke-width:3;stroke-linecap:butt;stroke-linejoin:miter;stroke-miterlimit:4;stroke-opacity:1;stroke-dasharray:none" d="m 453.59477,103.26797 c 309.80392,0 309.80392,0 309.80392,0" id="path4185" inkscape:connector-curvature="0"/>
  <path style="fill:#0000ff;fill-opacity:1;stroke:#0000ff;stroke-width:2.93664694;stroke-linecap:butt;stroke-linejoin:miter;stroke-miterlimit:4;stroke-opacity:1;stroke-dasharray:none" d="m 141.15301,456.20915 c 296.85739,0 296.85739,0 296.85739,0" id="path4185-5" inkscape:connector-curvature="0"/>
</svg>