<?xml version="1.0" encoding="UTF-8" standalone="no"?>
<svg xmlns:dc="http://purl.org/dc/elements/1.1/" xmlns:cc="http://creativecommons.org/ns#" xmlns:rdf="http://www.w3.org/1999/02/22-rdf-syntax-ns#" xmlns:svg="http://www.w3.org/2000/svg" xmlns="http://www.w3.org/2000/svg" xmlns:xlink="http://www.w3.org/1999/xlink" xmlns:sodipodi="http://sodipodi.sourceforge.net/DTD/sodipodi-0.dtd" xmlns:inkscape="http://www.inkscape.org/namespaces/inkscape" width="800" height="600" viewBox="0 0 800 600" id="svg3263" version="1.1" inkscape:version="0.48.4 r9939" sodipodi:docname="laplace_cdf.svg">
  <metadata id="metadata3539">
    <rdf:RDF>
      <cc:Work rdf:about="">
        <dc:format>image/svg+xml</dc:format>
        <dc:type rdf:resource="http://purl.org/dc/dcmitype/StillImage"/>
      </cc:Work>
    </rdf:RDF>
  </metadata>
  <sodipodi:namedview pagecolor="#ffffff" bordercolor="#666666" borderopacity="1" objecttolerance="10" gridtolerance="10" guidetolerance="10" inkscape:pageopacity="0" inkscape:pageshadow="2" inkscape:window-width="1366" inkscape:window-height="706" id="namedview3537" showgrid="false" inkscape:zoom="0.3825" inkscape:cx="400" inkscape:cy="300" inkscape:window-x="-8" inkscape:window-y="-8" inkscape:window-maximized="1" inkscape:current-layer="svg3263"/>
  <desc id="desc3265">Produced by GNUPLOT 4.2 patchlevel 6  </desc>
  <defs id="defs3267">
    <circle id="gpDot" r="0.5" stroke-width="0.5"/>
    <path id="gpPt0" stroke-width="0.111" stroke="currentColor" d="M-1,0 h2 M0,-1 v2"/>
    <path id="gpPt1" stroke-width="0.111" stroke="currentColor" d="M-1,-1 L1,1 M1,-1 L-1,1"/>
    <path id="gpPt2" stroke-width="0.111" stroke="currentColor" d="M-1,0 L1,0 M0,-1 L0,1 M-1,-1 L1,1 M-1,1 L1,-1"/>
    <rect id="gpPt3" stroke-width="0.111" stroke="currentColor" x="-1" y="-1" width="2" height="2"/>
    <rect id="gpPt4" stroke-width="0.111" stroke="currentColor" fill="currentColor" x="-1" y="-1" width="2" height="2"/>
    <circle id="gpPt5" stroke-width="0.111" stroke="currentColor" cx="0" cy="0" r="1"/>
    <use xlink:href="#gpPt5" id="gpPt6" fill="currentColor" stroke="none"/>
    <path id="gpPt7" stroke-width="0.111" stroke="currentColor" d="M0,-1.33 L-1.33,0.67 L1.33,0.67 z"/>
    <use xlink:href="#gpPt7" id="gpPt8" fill="currentColor" stroke="none"/>
    <use xlink:href="#gpPt7" id="gpPt9" stroke="currentColor" transform="rotate(180)"/>
    <use xlink:href="#gpPt9" id="gpPt10" fill="currentColor" stroke="none"/>
    <use xlink:href="#gpPt3" id="gpPt11" stroke="currentColor" transform="rotate(45)"/>
    <use xlink:href="#gpPt11" id="gpPt12" fill="currentColor" stroke="none"/>
  </defs>
  <g style="fill:none; color:white; stroke:currentColor; stroke-width:1.00; stroke-linecap:butt; stroke-linejoin:miter" id="g3283"/>
  <g style="fill:none; color:black; stroke:currentColor; stroke-width:1.00; stroke-linecap:butt; stroke-linejoin:miter" id="g3285">
    <path d="M141.9,528.0 L159.9,528.0 M758.2,528.0 L740.2,528.0 " id="path3287"/>
    <g transform="translate(125.2,537.0)" style="stroke:none; fill:black; font-family:Arial; font-size:24.00pt; text-anchor:end" id="g3289">
      <text id="text3291">
        <tspan id="tspan3293"> 0</tspan>
      </text>
    </g>
    <path d="M141.9,478.5 L159.9,478.5 M758.2,478.5 L740.2,478.5 " id="path3295"/>
    <g transform="translate(125.2,487.5)" style="stroke:none; fill:black; font-family:Arial; font-size:24.00pt; text-anchor:end" id="g3297">
      <text id="text3299">
        <tspan id="tspan3301"> 0.1</tspan>
      </text>
    </g>
    <path d="M141.9,429.1 L159.9,429.1 M758.2,429.1 L740.2,429.1 " id="path3303"/>
    <g transform="translate(125.2,438.1)" style="stroke:none; fill:black; font-family:Arial; font-size:24.00pt; text-anchor:end" id="g3305">
      <text id="text3307">
        <tspan id="tspan3309"> 0.2</tspan>
      </text>
    </g>
    <path d="M141.9,379.6 L159.9,379.6 M758.2,379.6 L740.2,379.6 " id="path3311"/>
    <g transform="translate(125.2,388.6)" style="stroke:none; fill:black; font-family:Arial; font-size:24.00pt; text-anchor:end" id="g3313">
      <text id="text3315">
        <tspan id="tspan3317"> 0.3</tspan>
      </text>
    </g>
    <path d="M141.9,330.2 L159.9,330.2 M758.2,330.2 L740.2,330.2 " id="path3319"/>
    <g transform="translate(125.2,339.2)" style="stroke:none; fill:black; font-family:Arial; font-size:24.00pt; text-anchor:end" id="g3321">
      <text id="text3323">
        <tspan id="tspan3325"> 0.4</tspan>
      </text>
    </g>
    <path d="M141.9,280.7 L159.9,280.7 M758.2,280.7 L740.2,280.7 " id="path3327"/>
    <g transform="translate(125.2,289.7)" style="stroke:none; fill:black; font-family:Arial; font-size:24.00pt; text-anchor:end" id="g3329">
      <text id="text3331">
        <tspan id="tspan3333"> 0.5</tspan>
      </text>
    </g>
    <path d="M141.9,231.2 L159.9,231.2 M758.2,231.2 L740.2,231.2 " id="path3335"/>
    <g transform="translate(125.2,240.2)" style="stroke:none; fill:black; font-family:Arial; font-size:24.00pt; text-anchor:end" id="g3337">
      <text id="text3339">
        <tspan id="tspan3341"> 0.6</tspan>
      </text>
    </g>
    <path d="M141.9,181.8 L159.9,181.8 M758.2,181.8 L740.2,181.8 " id="path3343"/>
    <g transform="translate(125.2,190.8)" style="stroke:none; fill:black; font-family:Arial; font-size:24.00pt; text-anchor:end" id="g3345">
      <text id="text3347">
        <tspan id="tspan3349"> 0.7</tspan>
      </text>
    </g>
    <path d="M141.9,132.3 L159.9,132.3 M758.2,132.3 L740.2,132.3 " id="path3351"/>
    <g transform="translate(125.2,141.3)" style="stroke:none; fill:black; font-family:Arial; font-size:24.00pt; text-anchor:end" id="g3353">
      <text id="text3355">
        <tspan id="tspan3357"> 0.8</tspan>
      </text>
    </g>
    <path d="M141.9,82.9 L159.9,82.9 M758.2,82.9 L740.2,82.9 " id="path3359"/>
    <g transform="translate(125.2,91.9)" style="stroke:none; fill:black; font-family:Arial; font-size:24.00pt; text-anchor:end" id="g3361">
      <text id="text3363">
        <tspan id="tspan3365"> 0.9</tspan>
      </text>
    </g>
    <path d="M141.9,33.4 L159.9,33.4 M758.2,33.4 L740.2,33.4 " id="path3367"/>
    <g transform="translate(125.2,42.4)" style="stroke:none; fill:black; font-family:Arial; font-size:24.00pt; text-anchor:end" id="g3369">
      <text id="text3371">
        <tspan id="tspan3373"> 1</tspan>
      </text>
    </g>
    <path d="M141.9,528.0 L141.9,510.0 M141.9,33.4 L141.9,51.4 " id="path3375"/>
    <g transform="translate(141.9,573.0)" style="stroke:none; fill:black; font-family:Arial; font-size:24.00pt; text-anchor:middle" id="g3377">
      <text id="text3379">
        <tspan id="tspan3381">-10</tspan>
      </text>
    </g>
    <path d="M203.5,528.0 L203.5,510.0 M203.5,33.4 L203.5,51.4 " id="path3383"/>
    <g transform="translate(203.5,573.0)" style="stroke:none; fill:black; font-family:Arial; font-size:24.00pt; text-anchor:middle" id="g3385">
      <text id="text3387">
        <tspan id="tspan3389">-8</tspan>
      </text>
    </g>
    <path d="M265.2,528.0 L265.2,510.0 M265.2,33.4 L265.2,51.4 " id="path3391"/>
    <g transform="translate(265.2,573.0)" style="stroke:none; fill:black; font-family:Arial; font-size:24.00pt; text-anchor:middle" id="g3393">
      <text id="text3395">
        <tspan id="tspan3397">-6</tspan>
      </text>
    </g>
    <path d="M326.8,528.0 L326.8,510.0 M326.8,33.4 L326.8,51.4 " id="path3399"/>
    <g transform="translate(326.8,573.0)" style="stroke:none; fill:black; font-family:Arial; font-size:24.00pt; text-anchor:middle" id="g3401">
      <text id="text3403">
        <tspan id="tspan3405">-4</tspan>
      </text>
    </g>
    <path d="M388.4,528.0 L388.4,510.0 M388.4,33.4 L388.4,51.4 " id="path3407"/>
    <g transform="translate(388.4,573.0)" style="stroke:none; fill:black; font-family:Arial; font-size:24.00pt; text-anchor:middle" id="g3409">
      <text id="text3411">
        <tspan id="tspan3413">-2</tspan>
      </text>
    </g>
    <path d="M450.1,528.0 L450.1,510.0 M450.1,33.4 L450.1,51.4 " id="path3415"/>
    <g transform="translate(450.1,573.0)" style="stroke:none; fill:black; font-family:Arial; font-size:24.00pt; text-anchor:middle" id="g3417">
      <text id="text3419">
        <tspan id="tspan3421"> 0</tspan>
      </text>
    </g>
    <path d="M511.7,528.0 L511.7,510.0 M511.7,33.4 L511.7,51.4 " id="path3423"/>
    <g transform="translate(511.7,573.0)" style="stroke:none; fill:black; font-family:Arial; font-size:24.00pt; text-anchor:middle" id="g3425">
      <text id="text3427">
        <tspan id="tspan3429"> 2</tspan>
      </text>
    </g>
    <path d="M573.3,528.0 L573.3,510.0 M573.3,33.4 L573.3,51.4 " id="path3431"/>
    <g transform="translate(573.3,573.0)" style="stroke:none; fill:black; font-family:Arial; font-size:24.00pt; text-anchor:middle" id="g3433">
      <text id="text3435">
        <tspan id="tspan3437"> 4</tspan>
      </text>
    </g>
    <path d="M634.9,528.0 L634.9,510.0 M634.9,33.4 L634.9,51.4 " id="path3439"/>
    <g transform="translate(634.9,573.0)" style="stroke:none; fill:black; font-family:Arial; font-size:24.00pt; text-anchor:middle" id="g3441">
      <text id="text3443">
        <tspan id="tspan3445"> 6</tspan>
      </text>
    </g>
    <path d="M696.6,528.0 L696.6,510.0 M696.6,33.4 L696.6,51.4 " id="path3447"/>
    <g transform="translate(696.6,573.0)" style="stroke:none; fill:black; font-family:Arial; font-size:24.00pt; text-anchor:middle" id="g3449">
      <text id="text3451">
        <tspan id="tspan3453"> 8</tspan>
      </text>
    </g>
    <path d="M758.2,528.0 L758.2,510.0 M758.2,33.4 L758.2,51.4 " id="path3455"/>
    <g transform="translate(758.2,573.0)" style="stroke:none; fill:black; font-family:Arial; font-size:24.00pt; text-anchor:middle" id="g3457">
      <text id="text3459">
        <tspan id="tspan3461"> 10</tspan>
      </text>
    </g>
    <path stroke="rgb(  0,   0,   0)" d="M141.9,528.0 L758.2,528.0 M450.1,528.0 L450.1,33.4 M141.9,33.4 L141.9,528.0 L758.2,528.0 L758.2,33.4    L141.9,33.4 Z " id="path3463"/>
  </g>
  <g style="fill:none; color:black; stroke:currentColor; stroke-width:5.00; stroke-linecap:butt; stroke-linejoin:miter" id="g3465"/>
  <g style="fill:none; color:red; stroke:currentColor; stroke-width:5.00; stroke-linecap:butt; stroke-linejoin:miter" id="g3467"/>
  <g style="fill:none; color:black; stroke:currentColor; stroke-width:5.00; stroke-linecap:butt; stroke-linejoin:miter" id="g3469">
    <g transform="translate(623.3,393.0)" style="stroke:none; fill:black; font-family:Arial; font-size:24.00pt; text-anchor:end" id="g3471">
      <text id="text3473">μ=0, b=1</text>
    </g>
  </g>
  <g style="fill:none; color:red; stroke:currentColor; stroke-width:5.00; stroke-linecap:butt; stroke-linejoin:miter" id="g3479">
    <path stroke="rgb(255,   0,   0)" d="M640.0,384.0 L724.8,384.0 M141.9,528.0 L148.1,528.0 L154.4,528.0 L160.6,528.0 L166.8,528.0 L173.0,528.0    L179.3,528.0 L185.5,528.0 L191.7,527.9 L197.9,527.9 L204.2,527.9 L210.4,527.9 L216.6,527.9 L222.8,527.8    L229.1,527.8 L235.3,527.8 L241.5,527.7 L247.7,527.7 L254.0,527.6 L260.2,527.5 L266.4,527.4 L272.6,527.2    L278.9,527.0 L285.1,526.8 L291.3,526.6 L297.5,526.2 L303.8,525.9 L310.0,525.4 L316.2,524.8 L322.4,524.1    L328.7,523.2 L334.9,522.1 L341.1,520.8 L347.3,519.2 L353.6,517.2 L359.8,514.8 L366.0,511.8 L372.2,508.2    L378.5,503.8 L384.7,498.4 L390.9,491.7 L397.1,483.6 L403.4,473.6 L409.6,461.5 L415.8,446.6 L422.0,428.4    L428.3,406.1 L434.5,378.8 L440.7,345.3 L446.9,304.5 L453.2,256.9 L459.4,216.1 L465.6,182.6 L471.8,155.3    L478.1,133.0 L484.3,114.8 L490.5,99.9 L496.7,87.8 L503.0,77.8 L509.2,69.7 L515.4,63.0 L521.6,57.6    L527.9,53.2 L534.1,49.6 L540.3,46.6 L546.5,44.2 L552.8,42.2 L559.0,40.6 L565.2,39.3 L571.4,38.2    L577.7,37.3 L583.9,36.6 L590.1,36.0 L596.3,35.5 L602.6,35.2 L608.8,34.8 L615.0,34.6 L621.2,34.4    L627.5,34.2 L633.7,34.0 L639.9,33.9 L646.1,33.8 L652.4,33.7 L658.6,33.7 L664.8,33.6 L671.0,33.6    L677.3,33.6 L683.5,33.5 L689.7,33.5 L695.9,33.5 L702.2,33.5 L708.4,33.5 L714.6,33.4 L720.8,33.4    L727.1,33.4 L733.3,33.4 L739.5,33.4 L745.7,33.4 L752.0,33.4 L758.2,33.4 " id="path3481"/>
  </g>
  <g style="fill:none; color:green; stroke:currentColor; stroke-width:5.00; stroke-linecap:butt; stroke-linejoin:miter" id="g3483"/>
  <g style="fill:none; color:black; stroke:currentColor; stroke-width:5.00; stroke-linecap:butt; stroke-linejoin:miter" id="g3485">
    <g transform="translate(623.3,429.0)" style="stroke:none; fill:black; font-family:Arial; font-size:24.00pt; text-anchor:end" id="g3487">
      <text id="text3489">μ=0, b=2</text>
    </g>
  </g>
  <g style="fill:none; color:green; stroke:currentColor; stroke-width:5.00; stroke-linecap:butt; stroke-linejoin:miter" id="g3495">
    <path stroke="rgb(  0,   0,   0)" d="M640.0,420.0 L724.8,420.0 M141.9,526.3 L148.1,526.2 L154.4,526.0 L160.6,525.7 L166.8,525.5 L173.0,525.2    L179.3,524.9 L185.5,524.6 L191.7,524.3 L197.9,523.9 L204.2,523.4 L210.4,522.9 L216.6,522.4 L222.8,521.8    L229.1,521.1 L235.3,520.4 L241.5,519.6 L247.7,518.7 L254.0,517.7 L260.2,516.6 L266.4,515.4 L272.6,514.1    L278.9,512.6 L285.1,511.0 L291.3,509.2 L297.5,507.2 L303.8,505.0 L310.0,502.5 L316.2,499.8 L322.4,496.8    L328.7,493.5 L334.9,489.8 L341.1,485.8 L347.3,481.3 L353.6,476.3 L359.8,470.8 L366.0,464.8 L372.2,458.0    L378.5,450.6 L384.7,442.4 L390.9,433.3 L397.1,423.2 L403.4,412.1 L409.6,399.7 L415.8,386.1 L422.0,371.0    L428.3,354.3 L434.5,335.9 L440.7,315.5 L446.9,292.9 L453.2,268.5 L459.4,245.9 L465.6,225.5 L471.8,207.1    L478.1,190.4 L484.3,175.3 L490.5,161.7 L496.7,149.3 L503.0,138.2 L509.2,128.1 L515.4,119.0 L521.6,110.8    L527.9,103.4 L534.1,96.6 L540.3,90.6 L546.5,85.1 L552.8,80.1 L559.0,75.6 L565.2,71.6 L571.4,67.9    L577.7,64.6 L583.9,61.6 L590.1,58.9 L596.3,56.4 L602.6,54.2 L608.8,52.2 L615.0,50.4 L621.2,48.8    L627.5,47.3 L633.7,46.0 L639.9,44.8 L646.1,43.7 L652.4,42.7 L658.6,41.8 L664.8,41.0 L671.0,40.3    L677.3,39.6 L683.5,39.0 L689.7,38.5 L695.9,38.0 L702.2,37.5 L708.4,37.1 L714.6,36.8 L720.8,36.5    L727.1,36.2 L733.3,35.9 L739.5,35.7 L745.7,35.4 L752.0,35.2 L758.2,35.1 " id="path3497"/>
  </g>
  <g style="fill:none; color:blue; stroke:currentColor; stroke-width:5.00; stroke-linecap:butt; stroke-linejoin:miter" id="g3499"/>
  <g style="fill:none; color:black; stroke:currentColor; stroke-width:5.00; stroke-linecap:butt; stroke-linejoin:miter" id="g3501">
    <g transform="translate(623.3,465.0)" style="stroke:none; fill:black; font-family:Arial; font-size:24.00pt; text-anchor:end" id="g3503">
      <text id="text3505">μ=0, b=4</text>
    </g>
  </g>
  <g style="fill:none; color:blue; stroke:currentColor; stroke-width:5.00; stroke-linecap:butt; stroke-linejoin:miter" id="g3511">
    <path stroke="rgb(  0,   0, 255)" d="M640.0,456.0 L724.8,456.0 M141.9,507.7 L148.1,506.6 L154.4,505.5 L160.6,504.4 L166.8,503.2 L173.0,501.9    L179.3,500.5 L185.5,499.1 L191.7,497.6 L197.9,496.0 L204.2,494.4 L210.4,492.6 L216.6,490.8 L222.8,488.9    L229.1,486.8 L235.3,484.7 L241.5,482.5 L247.7,480.1 L254.0,477.6 L260.2,475.0 L266.4,472.3 L272.6,469.4    L278.9,466.3 L285.1,463.1 L291.3,459.8 L297.5,456.2 L303.8,452.5 L310.0,448.6 L316.2,444.5 L322.4,440.2    L328.7,435.6 L334.9,430.8 L341.1,425.8 L347.3,420.5 L353.6,415.0 L359.8,409.1 L366.0,402.9 L372.2,396.5    L378.5,389.6 L384.7,382.5 L390.9,374.9 L397.1,367.0 L403.4,358.7 L409.6,349.9 L415.8,340.7 L422.0,331.0    L428.3,320.8 L434.5,310.0 L440.7,298.7 L446.9,286.9 L453.2,274.5 L459.4,262.7 L465.6,251.4 L471.8,240.6    L478.1,230.4 L484.3,220.7 L490.5,211.5 L496.7,202.7 L503.0,194.4 L509.2,186.5 L515.4,178.9 L521.6,171.8    L527.9,164.9 L534.1,158.5 L540.3,152.3 L546.5,146.4 L552.8,140.9 L559.0,135.6 L565.2,130.6 L571.4,125.8    L577.7,121.2 L583.9,116.9 L590.1,112.8 L596.3,108.9 L602.6,105.2 L608.8,101.6 L615.0,98.3 L621.2,95.1    L627.5,92.0 L633.7,89.1 L639.9,86.4 L646.1,83.8 L652.4,81.3 L658.6,78.9 L664.8,76.7 L671.0,74.6    L677.3,72.5 L683.5,70.6 L689.7,68.8 L695.9,67.0 L702.2,65.4 L708.4,63.8 L714.6,62.3 L720.8,60.9    L727.1,59.5 L733.3,58.2 L739.5,57.0 L745.7,55.9 L752.0,54.8 L758.2,53.7 " id="path3513"/>
  </g>
  <g style="fill:none; color:cyan; stroke:currentColor; stroke-width:5.00; stroke-linecap:butt; stroke-linejoin:miter" id="g3515"/>
  <g style="fill:none; color:black; stroke:currentColor; stroke-width:5.00; stroke-linecap:butt; stroke-linejoin:miter" id="g3517">
    <g transform="translate(623.3,501.0)" style="stroke:none; fill:black; font-family:Arial; font-size:24.00pt; text-anchor:end" id="g3519">
      <text id="text3521">μ=-5, b=4</text>
    </g>
  </g>
  <g style="fill:none; color:cyan; stroke:currentColor; stroke-width:5.00; stroke-linecap:butt; stroke-linejoin:miter" id="g3527">
    <path stroke="rgb(  0, 255,   0)" d="M640.0,492.0 L724.8,492.0 M141.9,457.1 L148.1,453.5 L154.4,449.6 L160.6,445.6 L166.8,441.3 L173.0,436.8    L179.3,432.1 L185.5,427.1 L191.7,421.9 L197.9,416.4 L204.2,410.6 L210.4,404.5 L216.6,398.1 L222.8,391.4    L229.1,384.3 L235.3,376.9 L241.5,369.0 L247.7,360.8 L254.0,352.1 L260.2,343.0 L266.4,333.4 L272.6,323.4    L278.9,312.8 L285.1,301.6 L291.3,289.9 L297.5,277.6 L303.8,265.6 L310.0,254.1 L316.2,243.3 L322.4,232.9    L328.7,223.1 L334.9,213.8 L341.1,204.9 L347.3,196.4 L353.6,188.4 L359.8,180.8 L366.0,173.5 L372.2,166.6    L378.5,160.0 L384.7,153.8 L390.9,147.9 L397.1,142.2 L403.4,136.9 L409.6,131.8 L415.8,126.9 L422.0,122.3    L428.3,118.0 L434.5,113.8 L440.7,109.8 L446.9,106.1 L453.2,102.5 L459.4,99.1 L465.6,95.8 L471.8,92.8    L478.1,89.8 L484.3,87.1 L490.5,84.4 L496.7,81.9 L503.0,79.5 L509.2,77.3 L515.4,75.1 L521.6,73.0    L527.9,71.1 L534.1,69.2 L540.3,67.5 L546.5,65.8 L552.8,64.2 L559.0,62.7 L565.2,61.2 L571.4,59.9    L577.7,58.6 L583.9,57.3 L590.1,56.1 L596.3,55.0 L602.6,54.0 L608.8,52.9 L615.0,52.0 L621.2,51.1    L627.5,50.2 L633.7,49.4 L639.9,48.6 L646.1,47.8 L652.4,47.1 L658.6,46.4 L664.8,45.8 L671.0,45.2    L677.3,44.6 L683.5,44.1 L689.7,43.5 L695.9,43.0 L702.2,42.6 L708.4,42.1 L714.6,41.7 L720.8,41.3    L727.1,40.9 L733.3,40.5 L739.5,40.2 L745.7,39.8 L752.0,39.5 L758.2,39.2 " id="path3529"/>
  </g>
  <g style="fill:none; color:cyan; stroke:rgb(  0, 255,   0); stroke-width:1.00; stroke-linecap:butt; stroke-linejoin:miter" id="g3531"/>
  <g style="fill:none; color:black; stroke:currentColor; stroke-width:1.00; stroke-linecap:butt; stroke-linejoin:miter" id="g3533">
    <path d="M141.9,33.4 L141.9,528.0 L758.2,528.0 L758.2,33.4 L141.9,33.4 Z " id="path3535"/>
  </g>
</svg>