<?xml version="1.0" encoding="UTF-8" standalone="no"?>
<!DOCTYPE svg PUBLIC "-//W3C//DTD SVG 1.1//EN" "http://www.w3.org/Graphics/SVG/1.1/DTD/svg11.dtd">
<!-- Created with matplotlib (http://matplotlib.sourceforge.net/) -->
<svg height="334pt" version="1.1" viewBox="0 0 342 334" width="342pt" xmlns="http://www.w3.org/2000/svg" xmlns:xlink="http://www.w3.org/1999/xlink">
 <defs>
  <style type="text/css">
*{stroke-linecap:square;stroke-linejoin:round;}
  </style>
 </defs>
 <g id="figure_1">
  <g id="patch_1">
   <path d=" M0 334.239 L342.765 334.239 L342.765 0 L0 0 z " style="fill:#ffffff;"/>
  </g>
  <g id="axes_1">
   <g id="patch_2">
    <path d=" M46.1681 298.8 L325.168 298.8 L325.168 10.8 L46.1681 10.8 z " style="fill:#ffffff;"/>
   </g>
   <g id="line2d_1">
    <path clip-path="url(#p8ebe1bd6ef)" d=" M46.1821 298.8 L48.0545 291.861 L49.9269 271.987 L51.7992 241.277 L53.6716 202.918 L57.4164 118.903 L59.2888 81.1046 L61.1612 50.4984 L63.0336 29.2542 L64.906 18.4571 L66.7784 18.1236 L68.6508 27.3437 L70.5231 44.5128 L72.3955 67.6062 L74.2679 94.4543 L78.0127 151.384 L79.8851 178.243 L81.7575 202.565 L83.6299 223.768 L85.5023 241.631 L87.3746 256.213 L89.247 267.77 L91.1194 276.679 L92.9918 283.365 L94.8642 288.256 L96.7366 291.747 L98.609 294.179 L100.481 295.834 L102.354 296.935 L104.226 297.65 L106.099 298.106 L109.843 298.561 L113.588 298.724 L122.95 298.797 L261.507 298.8 L325.168 298.8 L325.168 298.8" style="fill:none;stroke:#0000ff;stroke-width:2;"/>
   </g>
   <g id="line2d_2">
    <path clip-path="url(#p8ebe1bd6ef)" d=" M46.1821 298.8 L48.0545 297.927 L49.9269 295.356 L51.7992 291.157 L53.6716 285.441 L55.544 278.362 L57.4164 270.104 L59.2888 260.883 L63.0336 240.511 L68.6508 208.927 L70.5231 199.111 L72.3955 190.017 L74.2679 181.828 L76.1403 174.698 L78.0127 168.746 L79.8851 164.057 L81.7575 160.683 L83.6299 158.639 L85.5023 157.911 L87.3746 158.453 L89.247 160.196 L91.1194 163.047 L92.9918 166.895 L94.8642 171.618 L96.7366 177.084 L98.609 183.156 L102.354 196.575 L111.716 231.889 L115.46 244.738 L117.333 250.64 L119.205 256.149 L121.078 261.248 L122.95 265.926 L124.822 270.186 L126.695 274.033 L128.567 277.482 L130.44 280.553 L132.312 283.266 L134.184 285.648 L136.057 287.725 L137.929 289.524 L139.802 291.072 L141.674 292.396 L143.546 293.52 L145.419 294.47 L147.291 295.268 L151.036 296.486 L154.781 297.315 L158.525 297.866 L164.143 298.351 L169.76 298.594 L179.122 298.749 L201.59 298.799 L325.168 298.8 L325.168 298.8" style="fill:none;stroke:#ff0000;stroke-width:2;"/>
   </g>
   <g id="line2d_3">
    <path clip-path="url(#p8ebe1bd6ef)" d=" M46.1821 298.8 L49.9269 298.578 L53.6716 297.919 L57.4164 296.834 L61.1612 295.342 L64.906 293.468 L68.6508 291.245 L72.3955 288.709 L76.1403 285.904 L79.8851 282.875 L85.5023 278.022 L106.099 259.706 L109.843 256.718 L113.588 253.944 L117.333 251.419 L121.078 249.171 L124.822 247.225 L128.567 245.599 L132.312 244.305 L136.057 243.351 L139.802 242.738 L143.546 242.462 L147.291 242.514 L151.036 242.881 L154.781 243.548 L158.525 244.493 L162.27 245.693 L166.015 247.124 L169.76 248.76 L175.377 251.534 L180.994 254.611 L188.484 259.024 L210.952 272.56 L218.442 276.674 L224.059 279.526 L229.676 282.152 L235.293 284.539 L240.911 286.685 L246.528 288.592 L252.145 290.267 L257.762 291.724 L263.379 292.979 L268.996 294.048 L276.486 295.218 L283.976 296.137 L291.465 296.846 L300.827 297.498 L312.061 298.022 L325.168 298.389 L325.168 298.389" style="fill:none;stroke:#008000;stroke-width:2;"/>
   </g>
   <g id="matplotlib.axis_1">
    <g id="xtick_1">
     <g id="line2d_4">
      <path clip-path="url(#p8ebe1bd6ef)" d=" M46.1681 298.8 L46.1681 10.8" style="fill:none;stroke:#000000;stroke-dasharray:1.000000,3.000000;stroke-dashoffset:0.0;stroke-linecap:butt;stroke-width:0.5;"/>
     </g>
     <g id="line2d_5">
      <defs>
       <path d=" M0 0 L0 -4" id="m0012dd4eef" style="stroke:#000000;stroke-linecap:butt;stroke-width:0.5;"/>
      </defs>
      <g>
       <use style="stroke:#000000;stroke-linecap:butt;stroke-width:0.5;" x="46.168125" xlink:href="#m0012dd4eef" y="298.8"/>
      </g>
     </g>
     <g id="line2d_6">
      <defs>
       <path d=" M0 0 L0 4" id="m476344969c" style="stroke:#000000;stroke-linecap:butt;stroke-width:0.5;"/>
      </defs>
      <g>
       <use style="stroke:#000000;stroke-linecap:butt;stroke-width:0.5;" x="46.168125" xlink:href="#m476344969c" y="10.8"/>
      </g>
     </g>
     <g id="text_1">
      <!-- 0 -->
      <defs>
       <path d=" M31.7812 66.4062 Q24.1719 66.4062 20.3281 58.9062 Q16.5 51.4219 16.5 36.375 Q16.5 21.3906 20.3281 13.8906 Q24.1719 6.39062 31.7812 6.39062 Q39.4531 6.39062 43.2812 13.8906 Q47.125 21.3906 47.125 36.375 Q47.125 51.4219 43.2812 58.9062 Q39.4531 66.4062 31.7812 66.4062 M31.7812 74.2188 Q44.0469 74.2188 50.5156 64.5156 Q56.9844 54.8281 56.9844 36.375 Q56.9844 17.9688 50.5156 8.26562 Q44.0469 -1.42188 31.7812 -1.42188 Q19.5312 -1.42188 13.0625 8.26562 Q6.59375 17.9688 6.59375 36.375 Q6.59375 54.8281 13.0625 64.5156 Q19.5312 74.2188 31.7812 74.2188" id="BitstreamVeraSans-Roman-30"/>
      </defs>
      <g transform="translate(43.1446875 311.70625)scale(0.12 -0.12)">
       <use xlink:href="#BitstreamVeraSans-Roman-30"/>
      </g>
     </g>
    </g>
    <g id="xtick_2">
     <g id="line2d_7">
      <path clip-path="url(#p8ebe1bd6ef)" d=" M115.918 298.8 L115.918 10.8" style="fill:none;stroke:#000000;stroke-dasharray:1.000000,3.000000;stroke-dashoffset:0.0;stroke-linecap:butt;stroke-width:0.5;"/>
     </g>
     <g id="line2d_8">
      <g>
       <use style="stroke:#000000;stroke-linecap:butt;stroke-width:0.5;" x="115.918125" xlink:href="#m0012dd4eef" y="298.8"/>
      </g>
     </g>
     <g id="line2d_9">
      <g>
       <use style="stroke:#000000;stroke-linecap:butt;stroke-width:0.5;" x="115.918125" xlink:href="#m476344969c" y="10.8"/>
      </g>
     </g>
     <g id="text_2">
      <!-- 5 -->
      <defs>
       <path d=" M10.7969 72.9062 L49.5156 72.9062 L49.5156 64.5938 L19.8281 64.5938 L19.8281 46.7344 Q21.9688 47.4688 24.1094 47.8281 Q26.2656 48.1875 28.4219 48.1875 Q40.625 48.1875 47.75 41.5 Q54.8906 34.8125 54.8906 23.3906 Q54.8906 11.625 47.5625 5.09375 Q40.2344 -1.42188 26.9062 -1.42188 Q22.3125 -1.42188 17.5469 -0.640625 Q12.7969 0.140625 7.71875 1.70312 L7.71875 11.625 Q12.1094 9.23438 16.7969 8.0625 Q21.4844 6.89062 26.7031 6.89062 Q35.1562 6.89062 40.0781 11.3281 Q45.0156 15.7656 45.0156 23.3906 Q45.0156 31 40.0781 35.4375 Q35.1562 39.8906 26.7031 39.8906 Q22.75 39.8906 18.8125 39.0156 Q14.8906 38.1406 10.7969 36.2812 z " id="BitstreamVeraSans-Roman-35"/>
      </defs>
      <g transform="translate(113.0878125 311.54875)scale(0.12 -0.12)">
       <use xlink:href="#BitstreamVeraSans-Roman-35"/>
      </g>
     </g>
    </g>
    <g id="xtick_3">
     <g id="line2d_10">
      <path clip-path="url(#p8ebe1bd6ef)" d=" M185.668 298.8 L185.668 10.8" style="fill:none;stroke:#000000;stroke-dasharray:1.000000,3.000000;stroke-dashoffset:0.0;stroke-linecap:butt;stroke-width:0.5;"/>
     </g>
     <g id="line2d_11">
      <g>
       <use style="stroke:#000000;stroke-linecap:butt;stroke-width:0.5;" x="185.668125" xlink:href="#m0012dd4eef" y="298.8"/>
      </g>
     </g>
     <g id="line2d_12">
      <g>
       <use style="stroke:#000000;stroke-linecap:butt;stroke-width:0.5;" x="185.668125" xlink:href="#m476344969c" y="10.8"/>
      </g>
     </g>
     <g id="text_3">
      <!-- 10 -->
      <defs>
       <path d=" M12.4062 8.29688 L28.5156 8.29688 L28.5156 63.9219 L10.9844 60.4062 L10.9844 69.3906 L28.4219 72.9062 L38.2812 72.9062 L38.2812 8.29688 L54.3906 8.29688 L54.3906 0 L12.4062 0 z " id="BitstreamVeraSans-Roman-31"/>
      </defs>
      <g transform="translate(179.090625 311.70625)scale(0.12 -0.12)">
       <use xlink:href="#BitstreamVeraSans-Roman-31"/>
       <use x="63.623046875" xlink:href="#BitstreamVeraSans-Roman-30"/>
      </g>
     </g>
    </g>
    <g id="xtick_4">
     <g id="line2d_13">
      <path clip-path="url(#p8ebe1bd6ef)" d=" M255.418 298.8 L255.418 10.8" style="fill:none;stroke:#000000;stroke-dasharray:1.000000,3.000000;stroke-dashoffset:0.0;stroke-linecap:butt;stroke-width:0.5;"/>
     </g>
     <g id="line2d_14">
      <g>
       <use style="stroke:#000000;stroke-linecap:butt;stroke-width:0.5;" x="255.418125" xlink:href="#m0012dd4eef" y="298.8"/>
      </g>
     </g>
     <g id="line2d_15">
      <g>
       <use style="stroke:#000000;stroke-linecap:butt;stroke-width:0.5;" x="255.418125" xlink:href="#m476344969c" y="10.8"/>
      </g>
     </g>
     <g id="text_4">
      <!-- 15 -->
      <g transform="translate(248.96625 311.54875)scale(0.12 -0.12)">
       <use xlink:href="#BitstreamVeraSans-Roman-31"/>
       <use x="63.623046875" xlink:href="#BitstreamVeraSans-Roman-35"/>
      </g>
     </g>
    </g>
    <g id="xtick_5">
     <g id="line2d_16">
      <path clip-path="url(#p8ebe1bd6ef)" d=" M325.168 298.8 L325.168 10.8" style="fill:none;stroke:#000000;stroke-dasharray:1.000000,3.000000;stroke-dashoffset:0.0;stroke-linecap:butt;stroke-width:0.5;"/>
     </g>
     <g id="line2d_17">
      <g>
       <use style="stroke:#000000;stroke-linecap:butt;stroke-width:0.5;" x="325.168125" xlink:href="#m0012dd4eef" y="298.8"/>
      </g>
     </g>
     <g id="line2d_18">
      <g>
       <use style="stroke:#000000;stroke-linecap:butt;stroke-width:0.5;" x="325.168125" xlink:href="#m476344969c" y="10.8"/>
      </g>
     </g>
     <g id="text_5">
      <!-- 20 -->
      <defs>
       <path d=" M19.1875 8.29688 L53.6094 8.29688 L53.6094 0 L7.32812 0 L7.32812 8.29688 Q12.9375 14.1094 22.625 23.8906 Q32.3281 33.6875 34.8125 36.5312 Q39.5469 41.8438 41.4219 45.5312 Q43.3125 49.2188 43.3125 52.7812 Q43.3125 58.5938 39.2344 62.25 Q35.1562 65.9219 28.6094 65.9219 Q23.9688 65.9219 18.8125 64.3125 Q13.6719 62.7031 7.8125 59.4219 L7.8125 69.3906 Q13.7656 71.7812 18.9375 73 Q24.125 74.2188 28.4219 74.2188 Q39.75 74.2188 46.4844 68.5469 Q53.2188 62.8906 53.2188 53.4219 Q53.2188 48.9219 51.5312 44.8906 Q49.8594 40.875 45.4062 35.4062 Q44.1875 33.9844 37.6406 27.2188 Q31.1094 20.4531 19.1875 8.29688" id="BitstreamVeraSans-Roman-32"/>
      </defs>
      <g transform="translate(318.37125 311.70625)scale(0.12 -0.12)">
       <use xlink:href="#BitstreamVeraSans-Roman-32"/>
       <use x="63.623046875" xlink:href="#BitstreamVeraSans-Roman-30"/>
      </g>
     </g>
    </g>
    <g id="xtick_6">
     <g id="line2d_19">
      <defs>
       <path d=" M0 0 L0 -2" id="m69b1a1edd1" style="stroke:#000000;stroke-linecap:butt;stroke-width:0.5;"/>
      </defs>
      <g>
       <use style="stroke:#000000;stroke-linecap:butt;stroke-width:0.5;" x="60.118125" xlink:href="#m69b1a1edd1" y="298.8"/>
      </g>
     </g>
     <g id="line2d_20">
      <defs>
       <path d=" M0 0 L0 2" id="m9ad4d917ad" style="stroke:#000000;stroke-linecap:butt;stroke-width:0.5;"/>
      </defs>
      <g>
       <use style="stroke:#000000;stroke-linecap:butt;stroke-width:0.5;" x="60.118125" xlink:href="#m9ad4d917ad" y="10.8"/>
      </g>
     </g>
    </g>
    <g id="xtick_7">
     <g id="line2d_21">
      <g>
       <use style="stroke:#000000;stroke-linecap:butt;stroke-width:0.5;" x="74.068125" xlink:href="#m69b1a1edd1" y="298.8"/>
      </g>
     </g>
     <g id="line2d_22">
      <g>
       <use style="stroke:#000000;stroke-linecap:butt;stroke-width:0.5;" x="74.068125" xlink:href="#m9ad4d917ad" y="10.8"/>
      </g>
     </g>
    </g>
    <g id="xtick_8">
     <g id="line2d_23">
      <g>
       <use style="stroke:#000000;stroke-linecap:butt;stroke-width:0.5;" x="88.018125" xlink:href="#m69b1a1edd1" y="298.8"/>
      </g>
     </g>
     <g id="line2d_24">
      <g>
       <use style="stroke:#000000;stroke-linecap:butt;stroke-width:0.5;" x="88.018125" xlink:href="#m9ad4d917ad" y="10.8"/>
      </g>
     </g>
    </g>
    <g id="xtick_9">
     <g id="line2d_25">
      <g>
       <use style="stroke:#000000;stroke-linecap:butt;stroke-width:0.5;" x="101.968125" xlink:href="#m69b1a1edd1" y="298.8"/>
      </g>
     </g>
     <g id="line2d_26">
      <g>
       <use style="stroke:#000000;stroke-linecap:butt;stroke-width:0.5;" x="101.968125" xlink:href="#m9ad4d917ad" y="10.8"/>
      </g>
     </g>
    </g>
    <g id="xtick_10">
     <g id="line2d_27">
      <g>
       <use style="stroke:#000000;stroke-linecap:butt;stroke-width:0.5;" x="129.868125" xlink:href="#m69b1a1edd1" y="298.8"/>
      </g>
     </g>
     <g id="line2d_28">
      <g>
       <use style="stroke:#000000;stroke-linecap:butt;stroke-width:0.5;" x="129.868125" xlink:href="#m9ad4d917ad" y="10.8"/>
      </g>
     </g>
    </g>
    <g id="xtick_11">
     <g id="line2d_29">
      <g>
       <use style="stroke:#000000;stroke-linecap:butt;stroke-width:0.5;" x="143.818125" xlink:href="#m69b1a1edd1" y="298.8"/>
      </g>
     </g>
     <g id="line2d_30">
      <g>
       <use style="stroke:#000000;stroke-linecap:butt;stroke-width:0.5;" x="143.818125" xlink:href="#m9ad4d917ad" y="10.8"/>
      </g>
     </g>
    </g>
    <g id="xtick_12">
     <g id="line2d_31">
      <g>
       <use style="stroke:#000000;stroke-linecap:butt;stroke-width:0.5;" x="157.768125" xlink:href="#m69b1a1edd1" y="298.8"/>
      </g>
     </g>
     <g id="line2d_32">
      <g>
       <use style="stroke:#000000;stroke-linecap:butt;stroke-width:0.5;" x="157.768125" xlink:href="#m9ad4d917ad" y="10.8"/>
      </g>
     </g>
    </g>
    <g id="xtick_13">
     <g id="line2d_33">
      <g>
       <use style="stroke:#000000;stroke-linecap:butt;stroke-width:0.5;" x="171.718125" xlink:href="#m69b1a1edd1" y="298.8"/>
      </g>
     </g>
     <g id="line2d_34">
      <g>
       <use style="stroke:#000000;stroke-linecap:butt;stroke-width:0.5;" x="171.718125" xlink:href="#m9ad4d917ad" y="10.8"/>
      </g>
     </g>
    </g>
    <g id="xtick_14">
     <g id="line2d_35">
      <g>
       <use style="stroke:#000000;stroke-linecap:butt;stroke-width:0.5;" x="199.618125" xlink:href="#m69b1a1edd1" y="298.8"/>
      </g>
     </g>
     <g id="line2d_36">
      <g>
       <use style="stroke:#000000;stroke-linecap:butt;stroke-width:0.5;" x="199.618125" xlink:href="#m9ad4d917ad" y="10.8"/>
      </g>
     </g>
    </g>
    <g id="xtick_15">
     <g id="line2d_37">
      <g>
       <use style="stroke:#000000;stroke-linecap:butt;stroke-width:0.5;" x="213.568125" xlink:href="#m69b1a1edd1" y="298.8"/>
      </g>
     </g>
     <g id="line2d_38">
      <g>
       <use style="stroke:#000000;stroke-linecap:butt;stroke-width:0.5;" x="213.568125" xlink:href="#m9ad4d917ad" y="10.8"/>
      </g>
     </g>
    </g>
    <g id="xtick_16">
     <g id="line2d_39">
      <g>
       <use style="stroke:#000000;stroke-linecap:butt;stroke-width:0.5;" x="227.518125" xlink:href="#m69b1a1edd1" y="298.8"/>
      </g>
     </g>
     <g id="line2d_40">
      <g>
       <use style="stroke:#000000;stroke-linecap:butt;stroke-width:0.5;" x="227.518125" xlink:href="#m9ad4d917ad" y="10.8"/>
      </g>
     </g>
    </g>
    <g id="xtick_17">
     <g id="line2d_41">
      <g>
       <use style="stroke:#000000;stroke-linecap:butt;stroke-width:0.5;" x="241.468125" xlink:href="#m69b1a1edd1" y="298.8"/>
      </g>
     </g>
     <g id="line2d_42">
      <g>
       <use style="stroke:#000000;stroke-linecap:butt;stroke-width:0.5;" x="241.468125" xlink:href="#m9ad4d917ad" y="10.8"/>
      </g>
     </g>
    </g>
    <g id="xtick_18">
     <g id="line2d_43">
      <g>
       <use style="stroke:#000000;stroke-linecap:butt;stroke-width:0.5;" x="269.368125" xlink:href="#m69b1a1edd1" y="298.8"/>
      </g>
     </g>
     <g id="line2d_44">
      <g>
       <use style="stroke:#000000;stroke-linecap:butt;stroke-width:0.5;" x="269.368125" xlink:href="#m9ad4d917ad" y="10.8"/>
      </g>
     </g>
    </g>
    <g id="xtick_19">
     <g id="line2d_45">
      <g>
       <use style="stroke:#000000;stroke-linecap:butt;stroke-width:0.5;" x="283.318125" xlink:href="#m69b1a1edd1" y="298.8"/>
      </g>
     </g>
     <g id="line2d_46">
      <g>
       <use style="stroke:#000000;stroke-linecap:butt;stroke-width:0.5;" x="283.318125" xlink:href="#m9ad4d917ad" y="10.8"/>
      </g>
     </g>
    </g>
    <g id="xtick_20">
     <g id="line2d_47">
      <g>
       <use style="stroke:#000000;stroke-linecap:butt;stroke-width:0.5;" x="297.268125" xlink:href="#m69b1a1edd1" y="298.8"/>
      </g>
     </g>
     <g id="line2d_48">
      <g>
       <use style="stroke:#000000;stroke-linecap:butt;stroke-width:0.5;" x="297.268125" xlink:href="#m9ad4d917ad" y="10.8"/>
      </g>
     </g>
    </g>
    <g id="xtick_21">
     <g id="line2d_49">
      <g>
       <use style="stroke:#000000;stroke-linecap:butt;stroke-width:0.5;" x="311.218125" xlink:href="#m69b1a1edd1" y="298.8"/>
      </g>
     </g>
     <g id="line2d_50">
      <g>
       <use style="stroke:#000000;stroke-linecap:butt;stroke-width:0.5;" x="311.218125" xlink:href="#m9ad4d917ad" y="10.8"/>
      </g>
     </g>
    </g>
    <g id="text_6">
     <!-- x -->
     <defs>
      <path d=" M54.8906 54.6875 L35.1094 28.0781 L55.9062 0 L45.3125 0 L29.3906 21.4844 L13.4844 0 L2.875 0 L24.125 28.6094 L4.6875 54.6875 L15.2812 54.6875 L29.7812 35.2031 L44.2812 54.6875 z " id="BitstreamVeraSans-Roman-78"/>
     </defs>
     <g transform="translate(182.48625 323.439375)scale(0.12 -0.12)">
      <use xlink:href="#BitstreamVeraSans-Roman-78"/>
     </g>
    </g>
   </g>
   <g id="matplotlib.axis_2">
    <g id="ytick_1">
     <g id="line2d_51">
      <path clip-path="url(#p8ebe1bd6ef)" d=" M46.1681 298.8 L325.168 298.8" style="fill:none;stroke:#000000;stroke-dasharray:1.000000,3.000000;stroke-dashoffset:0.0;stroke-linecap:butt;stroke-width:0.5;"/>
     </g>
     <g id="line2d_52">
      <defs>
       <path d=" M0 0 L4 0" id="me8a85f7bf6" style="stroke:#000000;stroke-linecap:butt;stroke-width:0.5;"/>
      </defs>
      <g>
       <use style="stroke:#000000;stroke-linecap:butt;stroke-width:0.5;" x="46.168125" xlink:href="#me8a85f7bf6" y="298.8"/>
      </g>
     </g>
     <g id="line2d_53">
      <defs>
       <path d=" M0 0 L-4 0" id="m1a32005dea" style="stroke:#000000;stroke-linecap:butt;stroke-width:0.5;"/>
      </defs>
      <g>
       <use style="stroke:#000000;stroke-linecap:butt;stroke-width:0.5;" x="325.168125" xlink:href="#m1a32005dea" y="298.8"/>
      </g>
     </g>
     <g id="text_7">
      <!-- 0.0 -->
      <defs>
       <path d=" M10.6875 12.4062 L21 12.4062 L21 0 L10.6875 0 z " id="BitstreamVeraSans-Roman-2e"/>
      </defs>
      <g transform="translate(24.6725 303.1678125)scale(0.12 -0.12)">
       <use xlink:href="#BitstreamVeraSans-Roman-30"/>
       <use x="63.623046875" xlink:href="#BitstreamVeraSans-Roman-2e"/>
       <use x="95.41015625" xlink:href="#BitstreamVeraSans-Roman-30"/>
      </g>
     </g>
    </g>
    <g id="ytick_2">
     <g id="line2d_54">
      <path clip-path="url(#p8ebe1bd6ef)" d=" M46.1681 250.8 L325.168 250.8" style="fill:none;stroke:#000000;stroke-dasharray:1.000000,3.000000;stroke-dashoffset:0.0;stroke-linecap:butt;stroke-width:0.5;"/>
     </g>
     <g id="line2d_55">
      <g>
       <use style="stroke:#000000;stroke-linecap:butt;stroke-width:0.5;" x="46.168125" xlink:href="#me8a85f7bf6" y="250.8"/>
      </g>
     </g>
     <g id="line2d_56">
      <g>
       <use style="stroke:#000000;stroke-linecap:butt;stroke-width:0.5;" x="325.168125" xlink:href="#m1a32005dea" y="250.8"/>
      </g>
     </g>
     <g id="text_8">
      <!-- 0.1 -->
      <g transform="translate(24.98375 255.1678125)scale(0.12 -0.12)">
       <use xlink:href="#BitstreamVeraSans-Roman-30"/>
       <use x="63.623046875" xlink:href="#BitstreamVeraSans-Roman-2e"/>
       <use x="95.41015625" xlink:href="#BitstreamVeraSans-Roman-31"/>
      </g>
     </g>
    </g>
    <g id="ytick_3">
     <g id="line2d_57">
      <path clip-path="url(#p8ebe1bd6ef)" d=" M46.1681 202.8 L325.168 202.8" style="fill:none;stroke:#000000;stroke-dasharray:1.000000,3.000000;stroke-dashoffset:0.0;stroke-linecap:butt;stroke-width:0.5;"/>
     </g>
     <g id="line2d_58">
      <g>
       <use style="stroke:#000000;stroke-linecap:butt;stroke-width:0.5;" x="46.168125" xlink:href="#me8a85f7bf6" y="202.8"/>
      </g>
     </g>
     <g id="line2d_59">
      <g>
       <use style="stroke:#000000;stroke-linecap:butt;stroke-width:0.5;" x="325.168125" xlink:href="#m1a32005dea" y="202.8"/>
      </g>
     </g>
     <g id="text_9">
      <!-- 0.2 -->
      <g transform="translate(25.0775 207.1678125)scale(0.12 -0.12)">
       <use xlink:href="#BitstreamVeraSans-Roman-30"/>
       <use x="63.623046875" xlink:href="#BitstreamVeraSans-Roman-2e"/>
       <use x="95.41015625" xlink:href="#BitstreamVeraSans-Roman-32"/>
      </g>
     </g>
    </g>
    <g id="ytick_4">
     <g id="line2d_60">
      <path clip-path="url(#p8ebe1bd6ef)" d=" M46.1681 154.8 L325.168 154.8" style="fill:none;stroke:#000000;stroke-dasharray:1.000000,3.000000;stroke-dashoffset:0.0;stroke-linecap:butt;stroke-width:0.5;"/>
     </g>
     <g id="line2d_61">
      <g>
       <use style="stroke:#000000;stroke-linecap:butt;stroke-width:0.5;" x="46.168125" xlink:href="#me8a85f7bf6" y="154.8"/>
      </g>
     </g>
     <g id="line2d_62">
      <g>
       <use style="stroke:#000000;stroke-linecap:butt;stroke-width:0.5;" x="325.168125" xlink:href="#m1a32005dea" y="154.8"/>
      </g>
     </g>
     <g id="text_10">
      <!-- 0.3 -->
      <defs>
       <path d=" M40.5781 39.3125 Q47.6562 37.7969 51.625 33 Q55.6094 28.2188 55.6094 21.1875 Q55.6094 10.4062 48.1875 4.48438 Q40.7656 -1.42188 27.0938 -1.42188 Q22.5156 -1.42188 17.6562 -0.515625 Q12.7969 0.390625 7.625 2.20312 L7.625 11.7188 Q11.7188 9.32812 16.5938 8.10938 Q21.4844 6.89062 26.8125 6.89062 Q36.0781 6.89062 40.9375 10.5469 Q45.7969 14.2031 45.7969 21.1875 Q45.7969 27.6406 41.2812 31.2656 Q36.7656 34.9062 28.7188 34.9062 L20.2188 34.9062 L20.2188 43.0156 L29.1094 43.0156 Q36.375 43.0156 40.2344 45.9219 Q44.0938 48.8281 44.0938 54.2969 Q44.0938 59.9062 40.1094 62.9062 Q36.1406 65.9219 28.7188 65.9219 Q24.6562 65.9219 20.0156 65.0312 Q15.375 64.1562 9.8125 62.3125 L9.8125 71.0938 Q15.4375 72.6562 20.3438 73.4375 Q25.25 74.2188 29.5938 74.2188 Q40.8281 74.2188 47.3594 69.1094 Q53.9062 64.0156 53.9062 55.3281 Q53.9062 49.2656 50.4375 45.0938 Q46.9688 40.9219 40.5781 39.3125" id="BitstreamVeraSans-Roman-33"/>
      </defs>
      <g transform="translate(24.8375 159.1678125)scale(0.12 -0.12)">
       <use xlink:href="#BitstreamVeraSans-Roman-30"/>
       <use x="63.623046875" xlink:href="#BitstreamVeraSans-Roman-2e"/>
       <use x="95.41015625" xlink:href="#BitstreamVeraSans-Roman-33"/>
      </g>
     </g>
    </g>
    <g id="ytick_5">
     <g id="line2d_63">
      <path clip-path="url(#p8ebe1bd6ef)" d=" M46.1681 106.8 L325.168 106.8" style="fill:none;stroke:#000000;stroke-dasharray:1.000000,3.000000;stroke-dashoffset:0.0;stroke-linecap:butt;stroke-width:0.5;"/>
     </g>
     <g id="line2d_64">
      <g>
       <use style="stroke:#000000;stroke-linecap:butt;stroke-width:0.5;" x="46.168125" xlink:href="#me8a85f7bf6" y="106.8"/>
      </g>
     </g>
     <g id="line2d_65">
      <g>
       <use style="stroke:#000000;stroke-linecap:butt;stroke-width:0.5;" x="325.168125" xlink:href="#m1a32005dea" y="106.8"/>
      </g>
     </g>
     <g id="text_11">
      <!-- 0.4 -->
      <defs>
       <path d=" M37.7969 64.3125 L12.8906 25.3906 L37.7969 25.3906 z  M35.2031 72.9062 L47.6094 72.9062 L47.6094 25.3906 L58.0156 25.3906 L58.0156 17.1875 L47.6094 17.1875 L47.6094 0 L37.7969 0 L37.7969 17.1875 L4.89062 17.1875 L4.89062 26.7031 z " id="BitstreamVeraSans-Roman-34"/>
      </defs>
      <g transform="translate(24.54875 111.1678125)scale(0.12 -0.12)">
       <use xlink:href="#BitstreamVeraSans-Roman-30"/>
       <use x="63.623046875" xlink:href="#BitstreamVeraSans-Roman-2e"/>
       <use x="95.41015625" xlink:href="#BitstreamVeraSans-Roman-34"/>
      </g>
     </g>
    </g>
    <g id="ytick_6">
     <g id="line2d_66">
      <path clip-path="url(#p8ebe1bd6ef)" d=" M46.1681 58.8 L325.168 58.8" style="fill:none;stroke:#000000;stroke-dasharray:1.000000,3.000000;stroke-dashoffset:0.0;stroke-linecap:butt;stroke-width:0.5;"/>
     </g>
     <g id="line2d_67">
      <g>
       <use style="stroke:#000000;stroke-linecap:butt;stroke-width:0.5;" x="46.168125" xlink:href="#me8a85f7bf6" y="58.8"/>
      </g>
     </g>
     <g id="line2d_68">
      <g>
       <use style="stroke:#000000;stroke-linecap:butt;stroke-width:0.5;" x="325.168125" xlink:href="#m1a32005dea" y="58.8"/>
      </g>
     </g>
     <g id="text_12">
      <!-- 0.5 -->
      <g transform="translate(24.92375 63.1678125)scale(0.12 -0.12)">
       <use xlink:href="#BitstreamVeraSans-Roman-30"/>
       <use x="63.623046875" xlink:href="#BitstreamVeraSans-Roman-2e"/>
       <use x="95.41015625" xlink:href="#BitstreamVeraSans-Roman-35"/>
      </g>
     </g>
    </g>
    <g id="ytick_7">
     <g id="line2d_69">
      <defs>
       <path d=" M0 0 L2 0" id="md1aed85dae" style="stroke:#000000;stroke-linecap:butt;stroke-width:0.5;"/>
      </defs>
      <g>
       <use style="stroke:#000000;stroke-linecap:butt;stroke-width:0.5;" x="46.168125" xlink:href="#md1aed85dae" y="289.2"/>
      </g>
     </g>
     <g id="line2d_70">
      <defs>
       <path d=" M0 0 L-2 0" id="m544cce01ee" style="stroke:#000000;stroke-linecap:butt;stroke-width:0.5;"/>
      </defs>
      <g>
       <use style="stroke:#000000;stroke-linecap:butt;stroke-width:0.5;" x="325.168125" xlink:href="#m544cce01ee" y="289.2"/>
      </g>
     </g>
    </g>
    <g id="ytick_8">
     <g id="line2d_71">
      <g>
       <use style="stroke:#000000;stroke-linecap:butt;stroke-width:0.5;" x="46.168125" xlink:href="#md1aed85dae" y="279.6"/>
      </g>
     </g>
     <g id="line2d_72">
      <g>
       <use style="stroke:#000000;stroke-linecap:butt;stroke-width:0.5;" x="325.168125" xlink:href="#m544cce01ee" y="279.6"/>
      </g>
     </g>
    </g>
    <g id="ytick_9">
     <g id="line2d_73">
      <g>
       <use style="stroke:#000000;stroke-linecap:butt;stroke-width:0.5;" x="46.168125" xlink:href="#md1aed85dae" y="270.0"/>
      </g>
     </g>
     <g id="line2d_74">
      <g>
       <use style="stroke:#000000;stroke-linecap:butt;stroke-width:0.5;" x="325.168125" xlink:href="#m544cce01ee" y="270.0"/>
      </g>
     </g>
    </g>
    <g id="ytick_10">
     <g id="line2d_75">
      <g>
       <use style="stroke:#000000;stroke-linecap:butt;stroke-width:0.5;" x="46.168125" xlink:href="#md1aed85dae" y="260.4"/>
      </g>
     </g>
     <g id="line2d_76">
      <g>
       <use style="stroke:#000000;stroke-linecap:butt;stroke-width:0.5;" x="325.168125" xlink:href="#m544cce01ee" y="260.4"/>
      </g>
     </g>
    </g>
    <g id="ytick_11">
     <g id="line2d_77">
      <g>
       <use style="stroke:#000000;stroke-linecap:butt;stroke-width:0.5;" x="46.168125" xlink:href="#md1aed85dae" y="241.2"/>
      </g>
     </g>
     <g id="line2d_78">
      <g>
       <use style="stroke:#000000;stroke-linecap:butt;stroke-width:0.5;" x="325.168125" xlink:href="#m544cce01ee" y="241.2"/>
      </g>
     </g>
    </g>
    <g id="ytick_12">
     <g id="line2d_79">
      <g>
       <use style="stroke:#000000;stroke-linecap:butt;stroke-width:0.5;" x="46.168125" xlink:href="#md1aed85dae" y="231.6"/>
      </g>
     </g>
     <g id="line2d_80">
      <g>
       <use style="stroke:#000000;stroke-linecap:butt;stroke-width:0.5;" x="325.168125" xlink:href="#m544cce01ee" y="231.6"/>
      </g>
     </g>
    </g>
    <g id="ytick_13">
     <g id="line2d_81">
      <g>
       <use style="stroke:#000000;stroke-linecap:butt;stroke-width:0.5;" x="46.168125" xlink:href="#md1aed85dae" y="222.0"/>
      </g>
     </g>
     <g id="line2d_82">
      <g>
       <use style="stroke:#000000;stroke-linecap:butt;stroke-width:0.5;" x="325.168125" xlink:href="#m544cce01ee" y="222.0"/>
      </g>
     </g>
    </g>
    <g id="ytick_14">
     <g id="line2d_83">
      <g>
       <use style="stroke:#000000;stroke-linecap:butt;stroke-width:0.5;" x="46.168125" xlink:href="#md1aed85dae" y="212.4"/>
      </g>
     </g>
     <g id="line2d_84">
      <g>
       <use style="stroke:#000000;stroke-linecap:butt;stroke-width:0.5;" x="325.168125" xlink:href="#m544cce01ee" y="212.4"/>
      </g>
     </g>
    </g>
    <g id="ytick_15">
     <g id="line2d_85">
      <g>
       <use style="stroke:#000000;stroke-linecap:butt;stroke-width:0.5;" x="46.168125" xlink:href="#md1aed85dae" y="193.2"/>
      </g>
     </g>
     <g id="line2d_86">
      <g>
       <use style="stroke:#000000;stroke-linecap:butt;stroke-width:0.5;" x="325.168125" xlink:href="#m544cce01ee" y="193.2"/>
      </g>
     </g>
    </g>
    <g id="ytick_16">
     <g id="line2d_87">
      <g>
       <use style="stroke:#000000;stroke-linecap:butt;stroke-width:0.5;" x="46.168125" xlink:href="#md1aed85dae" y="183.6"/>
      </g>
     </g>
     <g id="line2d_88">
      <g>
       <use style="stroke:#000000;stroke-linecap:butt;stroke-width:0.5;" x="325.168125" xlink:href="#m544cce01ee" y="183.6"/>
      </g>
     </g>
    </g>
    <g id="ytick_17">
     <g id="line2d_89">
      <g>
       <use style="stroke:#000000;stroke-linecap:butt;stroke-width:0.5;" x="46.168125" xlink:href="#md1aed85dae" y="174.0"/>
      </g>
     </g>
     <g id="line2d_90">
      <g>
       <use style="stroke:#000000;stroke-linecap:butt;stroke-width:0.5;" x="325.168125" xlink:href="#m544cce01ee" y="174.0"/>
      </g>
     </g>
    </g>
    <g id="ytick_18">
     <g id="line2d_91">
      <g>
       <use style="stroke:#000000;stroke-linecap:butt;stroke-width:0.5;" x="46.168125" xlink:href="#md1aed85dae" y="164.4"/>
      </g>
     </g>
     <g id="line2d_92">
      <g>
       <use style="stroke:#000000;stroke-linecap:butt;stroke-width:0.5;" x="325.168125" xlink:href="#m544cce01ee" y="164.4"/>
      </g>
     </g>
    </g>
    <g id="ytick_19">
     <g id="line2d_93">
      <g>
       <use style="stroke:#000000;stroke-linecap:butt;stroke-width:0.5;" x="46.168125" xlink:href="#md1aed85dae" y="154.8"/>
      </g>
     </g>
     <g id="line2d_94">
      <g>
       <use style="stroke:#000000;stroke-linecap:butt;stroke-width:0.5;" x="325.168125" xlink:href="#m544cce01ee" y="154.8"/>
      </g>
     </g>
    </g>
    <g id="ytick_20">
     <g id="line2d_95">
      <g>
       <use style="stroke:#000000;stroke-linecap:butt;stroke-width:0.5;" x="46.168125" xlink:href="#md1aed85dae" y="145.2"/>
      </g>
     </g>
     <g id="line2d_96">
      <g>
       <use style="stroke:#000000;stroke-linecap:butt;stroke-width:0.5;" x="325.168125" xlink:href="#m544cce01ee" y="145.2"/>
      </g>
     </g>
    </g>
    <g id="ytick_21">
     <g id="line2d_97">
      <g>
       <use style="stroke:#000000;stroke-linecap:butt;stroke-width:0.5;" x="46.168125" xlink:href="#md1aed85dae" y="135.6"/>
      </g>
     </g>
     <g id="line2d_98">
      <g>
       <use style="stroke:#000000;stroke-linecap:butt;stroke-width:0.5;" x="325.168125" xlink:href="#m544cce01ee" y="135.6"/>
      </g>
     </g>
    </g>
    <g id="ytick_22">
     <g id="line2d_99">
      <g>
       <use style="stroke:#000000;stroke-linecap:butt;stroke-width:0.5;" x="46.168125" xlink:href="#md1aed85dae" y="126.0"/>
      </g>
     </g>
     <g id="line2d_100">
      <g>
       <use style="stroke:#000000;stroke-linecap:butt;stroke-width:0.5;" x="325.168125" xlink:href="#m544cce01ee" y="126.0"/>
      </g>
     </g>
    </g>
    <g id="ytick_23">
     <g id="line2d_101">
      <g>
       <use style="stroke:#000000;stroke-linecap:butt;stroke-width:0.5;" x="46.168125" xlink:href="#md1aed85dae" y="116.4"/>
      </g>
     </g>
     <g id="line2d_102">
      <g>
       <use style="stroke:#000000;stroke-linecap:butt;stroke-width:0.5;" x="325.168125" xlink:href="#m544cce01ee" y="116.4"/>
      </g>
     </g>
    </g>
    <g id="ytick_24">
     <g id="line2d_103">
      <g>
       <use style="stroke:#000000;stroke-linecap:butt;stroke-width:0.5;" x="46.168125" xlink:href="#md1aed85dae" y="97.2"/>
      </g>
     </g>
     <g id="line2d_104">
      <g>
       <use style="stroke:#000000;stroke-linecap:butt;stroke-width:0.5;" x="325.168125" xlink:href="#m544cce01ee" y="97.2"/>
      </g>
     </g>
    </g>
    <g id="ytick_25">
     <g id="line2d_105">
      <g>
       <use style="stroke:#000000;stroke-linecap:butt;stroke-width:0.5;" x="46.168125" xlink:href="#md1aed85dae" y="87.6"/>
      </g>
     </g>
     <g id="line2d_106">
      <g>
       <use style="stroke:#000000;stroke-linecap:butt;stroke-width:0.5;" x="325.168125" xlink:href="#m544cce01ee" y="87.6"/>
      </g>
     </g>
    </g>
    <g id="ytick_26">
     <g id="line2d_107">
      <g>
       <use style="stroke:#000000;stroke-linecap:butt;stroke-width:0.5;" x="46.168125" xlink:href="#md1aed85dae" y="78.0"/>
      </g>
     </g>
     <g id="line2d_108">
      <g>
       <use style="stroke:#000000;stroke-linecap:butt;stroke-width:0.5;" x="325.168125" xlink:href="#m544cce01ee" y="78.0"/>
      </g>
     </g>
    </g>
    <g id="ytick_27">
     <g id="line2d_109">
      <g>
       <use style="stroke:#000000;stroke-linecap:butt;stroke-width:0.5;" x="46.168125" xlink:href="#md1aed85dae" y="68.4"/>
      </g>
     </g>
     <g id="line2d_110">
      <g>
       <use style="stroke:#000000;stroke-linecap:butt;stroke-width:0.5;" x="325.168125" xlink:href="#m544cce01ee" y="68.4"/>
      </g>
     </g>
    </g>
    <g id="ytick_28">
     <g id="line2d_111">
      <g>
       <use style="stroke:#000000;stroke-linecap:butt;stroke-width:0.5;" x="46.168125" xlink:href="#md1aed85dae" y="58.8"/>
      </g>
     </g>
     <g id="line2d_112">
      <g>
       <use style="stroke:#000000;stroke-linecap:butt;stroke-width:0.5;" x="325.168125" xlink:href="#m544cce01ee" y="58.8"/>
      </g>
     </g>
    </g>
    <g id="ytick_29">
     <g id="line2d_113">
      <g>
       <use style="stroke:#000000;stroke-linecap:butt;stroke-width:0.5;" x="46.168125" xlink:href="#md1aed85dae" y="49.2"/>
      </g>
     </g>
     <g id="line2d_114">
      <g>
       <use style="stroke:#000000;stroke-linecap:butt;stroke-width:0.5;" x="325.168125" xlink:href="#m544cce01ee" y="49.2"/>
      </g>
     </g>
    </g>
    <g id="ytick_30">
     <g id="line2d_115">
      <g>
       <use style="stroke:#000000;stroke-linecap:butt;stroke-width:0.5;" x="46.168125" xlink:href="#md1aed85dae" y="39.6"/>
      </g>
     </g>
     <g id="line2d_116">
      <g>
       <use style="stroke:#000000;stroke-linecap:butt;stroke-width:0.5;" x="325.168125" xlink:href="#m544cce01ee" y="39.6"/>
      </g>
     </g>
    </g>
    <g id="ytick_31">
     <g id="line2d_117">
      <g>
       <use style="stroke:#000000;stroke-linecap:butt;stroke-width:0.5;" x="46.168125" xlink:href="#md1aed85dae" y="30.0"/>
      </g>
     </g>
     <g id="line2d_118">
      <g>
       <use style="stroke:#000000;stroke-linecap:butt;stroke-width:0.5;" x="325.168125" xlink:href="#m544cce01ee" y="30.0"/>
      </g>
     </g>
    </g>
    <g id="ytick_32">
     <g id="line2d_119">
      <g>
       <use style="stroke:#000000;stroke-linecap:butt;stroke-width:0.5;" x="46.168125" xlink:href="#md1aed85dae" y="20.4"/>
      </g>
     </g>
     <g id="line2d_120">
      <g>
       <use style="stroke:#000000;stroke-linecap:butt;stroke-width:0.5;" x="325.168125" xlink:href="#m544cce01ee" y="20.4"/>
      </g>
     </g>
    </g>
    <g id="text_13">
     <!-- PDF -->
     <defs>
      <path d=" M19.6719 64.7969 L19.6719 37.4062 L32.0781 37.4062 Q38.9688 37.4062 42.7188 40.9688 Q46.4844 44.5312 46.4844 51.125 Q46.4844 57.6719 42.7188 61.2344 Q38.9688 64.7969 32.0781 64.7969 z  M9.8125 72.9062 L32.0781 72.9062 Q44.3438 72.9062 50.6094 67.3594 Q56.8906 61.8125 56.8906 51.125 Q56.8906 40.3281 50.6094 34.8125 Q44.3438 29.2969 32.0781 29.2969 L19.6719 29.2969 L19.6719 0 L9.8125 0 z " id="BitstreamVeraSans-Roman-50"/>
      <path d=" M9.8125 72.9062 L51.7031 72.9062 L51.7031 64.5938 L19.6719 64.5938 L19.6719 43.1094 L48.5781 43.1094 L48.5781 34.8125 L19.6719 34.8125 L19.6719 0 L9.8125 0 z " id="BitstreamVeraSans-Roman-46"/>
      <path d=" M19.6719 64.7969 L19.6719 8.10938 L31.5938 8.10938 Q46.6875 8.10938 53.6875 14.9375 Q60.6875 21.7812 60.6875 36.5312 Q60.6875 51.1719 53.6875 57.9844 Q46.6875 64.7969 31.5938 64.7969 z  M9.8125 72.9062 L30.0781 72.9062 Q51.2656 72.9062 61.1719 64.0938 Q71.0938 55.2812 71.0938 36.5312 Q71.0938 17.6719 61.125 8.82812 Q51.1719 0 30.0781 0 L9.8125 0 z " id="BitstreamVeraSans-Roman-44"/>
     </defs>
     <g transform="translate(19.54875 165.55125)rotate(-90.0)scale(0.12 -0.12)">
      <use xlink:href="#BitstreamVeraSans-Roman-50"/>
      <use x="60.302734375" xlink:href="#BitstreamVeraSans-Roman-44"/>
      <use x="137.3046875" xlink:href="#BitstreamVeraSans-Roman-46"/>
     </g>
    </g>
   </g>
   <g id="patch_3">
    <path d=" M46.1681 10.8 L325.168 10.8" style="fill:none;stroke:#000000;"/>
   </g>
   <g id="patch_4">
    <path d=" M325.168 298.8 L325.168 10.8" style="fill:none;stroke:#000000;"/>
   </g>
   <g id="patch_5">
    <path d=" M46.1681 298.8 L325.168 298.8" style="fill:none;stroke:#000000;"/>
   </g>
   <g id="patch_6">
    <path d=" M46.1681 298.8 L46.1681 10.8" style="fill:none;stroke:#000000;"/>
   </g>
   <g id="legend_1">
    <g id="patch_7">
     <path d=" M238.197 82.9395 L317.968 82.9395 L317.968 18 L238.197 18 L238.197 82.9395 z " style="fill:#ffffff;stroke:#000000;"/>
    </g>
    <g id="line2d_121">
     <path d=" M248.277 29.6618 L268.437 29.6618" style="fill:none;stroke:#0000ff;stroke-width:2;"/>
    </g>
    <g id="line2d_122"/>
    <g id="text_14">
     <!-- a=1 -->
     <defs>
      <path d=" M34.2812 27.4844 Q23.3906 27.4844 19.1875 25 Q14.9844 22.5156 14.9844 16.5 Q14.9844 11.7188 18.1406 8.90625 Q21.2969 6.10938 26.7031 6.10938 Q34.1875 6.10938 38.7031 11.4062 Q43.2188 16.7031 43.2188 25.4844 L43.2188 27.4844 z  M52.2031 31.2031 L52.2031 0 L43.2188 0 L43.2188 8.29688 Q40.1406 3.32812 35.5469 0.953125 Q30.9531 -1.42188 24.3125 -1.42188 Q15.9219 -1.42188 10.9531 3.29688 Q6 8.01562 6 15.9219 Q6 25.1406 12.1719 29.8281 Q18.3594 34.5156 30.6094 34.5156 L43.2188 34.5156 L43.2188 35.4062 Q43.2188 41.6094 39.1406 45 Q35.0625 48.3906 27.6875 48.3906 Q23 48.3906 18.5469 47.2656 Q14.1094 46.1406 10.0156 43.8906 L10.0156 52.2031 Q14.9375 54.1094 19.5781 55.0469 Q24.2188 56 28.6094 56 Q40.4844 56 46.3438 49.8438 Q52.2031 43.7031 52.2031 31.2031" id="BitstreamVeraSans-Roman-61"/>
      <path d=" M10.5938 45.4062 L73.1875 45.4062 L73.1875 37.2031 L10.5938 37.2031 z  M10.5938 25.4844 L73.1875 25.4844 L73.1875 17.1875 L10.5938 17.1875 z " id="BitstreamVeraSans-Roman-3d"/>
     </defs>
     <g transform="translate(284.276625 34.70175)scale(0.144 -0.144)">
      <use xlink:href="#BitstreamVeraSans-Roman-61"/>
      <use x="61.279296875" xlink:href="#BitstreamVeraSans-Roman-3d"/>
      <use x="145.068359375" xlink:href="#BitstreamVeraSans-Roman-31"/>
     </g>
    </g>
    <g id="line2d_123">
     <path d=" M248.277 50.7983 L268.437 50.7983" style="fill:none;stroke:#ff0000;stroke-width:2;"/>
    </g>
    <g id="line2d_124"/>
    <g id="text_15">
     <!-- a=2 -->
     <g transform="translate(284.276625 55.83825)scale(0.144 -0.144)">
      <use xlink:href="#BitstreamVeraSans-Roman-61"/>
      <use x="61.279296875" xlink:href="#BitstreamVeraSans-Roman-3d"/>
      <use x="145.068359375" xlink:href="#BitstreamVeraSans-Roman-32"/>
     </g>
    </g>
    <g id="line2d_125">
     <path d=" M248.277 71.9347 L268.437 71.9347" style="fill:none;stroke:#008000;stroke-width:2;"/>
    </g>
    <g id="line2d_126"/>
    <g id="text_16">
     <!-- a=5 -->
     <g transform="translate(284.276625 76.97475)scale(0.144 -0.144)">
      <use xlink:href="#BitstreamVeraSans-Roman-61"/>
      <use x="61.279296875" xlink:href="#BitstreamVeraSans-Roman-3d"/>
      <use x="145.068359375" xlink:href="#BitstreamVeraSans-Roman-35"/>
     </g>
    </g>
   </g>
  </g>
 </g>
 <defs>
  <clipPath id="p8ebe1bd6ef">
   <rect height="288.0" width="279.0" x="46.168125" y="10.8"/>
  </clipPath>
 </defs>
</svg>