<?xml version="1.0" encoding="UTF-8" standalone="no"?>
<!DOCTYPE svg PUBLIC "-//W3C//DTD SVG 1.1//EN" "http://www.w3.org/Graphics/SVG/1.1/DTD/svg11.dtd">
<svg viewBox="0 0 576 432" xmlns="http://www.w3.org/2000/svg" xmlns:xlink="http://www.w3.org/1999/xlink">

<title>WignerS distribution PDF</title>
<desc>Produced by GNUPLOT 4.6 patchlevel 1 </desc>

<g id="gnuplot_canvas">

<rect x="0" y="0" width="576" height="432" fill="none"/>
<defs>

	<circle id="gpDot" r="0.5" stroke-width="0.5"/>
	<path id="gpPt0" stroke-width="0.299" stroke="currentColor" d="M-1,0 h2 M0,-1 v2"/>
	<path id="gpPt1" stroke-width="0.299" stroke="currentColor" d="M-1,-1 L1,1 M1,-1 L-1,1"/>
	<path id="gpPt2" stroke-width="0.299" stroke="currentColor" d="M-1,0 L1,0 M0,-1 L0,1 M-1,-1 L1,1 M-1,1 L1,-1"/>
	<rect id="gpPt3" stroke-width="0.299" stroke="currentColor" x="-1" y="-1" width="2" height="2"/>
	<rect id="gpPt4" stroke-width="0.299" stroke="currentColor" fill="currentColor" x="-1" y="-1" width="2" height="2"/>
	<circle id="gpPt5" stroke-width="0.299" stroke="currentColor" cx="0" cy="0" r="1"/>
	<use xlink:href="#gpPt5" id="gpPt6" fill="currentColor" stroke="none"/>
	<path id="gpPt7" stroke-width="0.299" stroke="currentColor" d="M0,-1.33 L-1.33,0.67 L1.33,0.67 z"/>
	<use xlink:href="#gpPt7" id="gpPt8" fill="currentColor" stroke="none"/>
	<use xlink:href="#gpPt7" id="gpPt9" stroke="currentColor" transform="rotate(180)"/>
	<use xlink:href="#gpPt9" id="gpPt10" fill="currentColor" stroke="none"/>
	<use xlink:href="#gpPt3" id="gpPt11" stroke="currentColor" transform="rotate(45)"/>
	<use xlink:href="#gpPt11" id="gpPt12" fill="currentColor" stroke="none"/>
</defs>
<g style="fill:none; color:white; stroke:currentColor; stroke-width:1.00; stroke-linecap:butt; stroke-linejoin:miter">
</g>
<g style="fill:none; color:white; stroke:currentColor; stroke-width:0.50; stroke-linecap:butt; stroke-linejoin:miter">
</g>
<g style="fill:none; color:black; stroke:currentColor; stroke-width:0.50; stroke-linecap:butt; stroke-linejoin:miter">
	<path d="M34.6,405.2 L43.9,405.2 M557.0,405.2 L547.7,405.2  h0.01"/>	<g transform="translate(28.3,408.6)" style="stroke:none; fill:rgb(0,0,0); font-family:{}; font-size:12.00pt; text-anchor:end">
		<text><tspan>0</tspan></text>
	</g>
	<path d="M34.6,385.6 L39.2,385.6 M557.0,385.6 L552.4,385.6 M34.6,365.9 L39.2,365.9 M557.0,365.9 L552.4,365.9    M34.6,346.3 L39.2,346.3 M557.0,346.3 L552.4,346.3 M34.6,326.7 L39.2,326.7 M557.0,326.7 L552.4,326.7    M34.6,307.1 L43.9,307.1 M557.0,307.1 L547.7,307.1  h0.01"/>	<g transform="translate(28.3,310.5)" style="stroke:none; fill:rgb(0,0,0); font-family:{}; font-size:12.00pt; text-anchor:end">
		<text><tspan>0.5</tspan></text>
	</g>
	<path d="M34.6,287.4 L39.2,287.4 M557.0,287.4 L552.4,287.4 M34.6,267.8 L39.2,267.8 M557.0,267.8 L552.4,267.8    M34.6,248.2 L39.2,248.2 M557.0,248.2 L552.4,248.2 M34.6,228.6 L39.2,228.6 M557.0,228.6 L552.4,228.6    M34.6,208.9 L43.9,208.9 M557.0,208.9 L547.7,208.9  h0.01"/>	<g transform="translate(28.3,212.3)" style="stroke:none; fill:rgb(0,0,0); font-family:{}; font-size:12.00pt; text-anchor:end">
		<text><tspan>1</tspan></text>
	</g>
	<path d="M34.6,189.3 L39.2,189.3 M557.0,189.3 L552.4,189.3 M34.6,169.7 L39.2,169.7 M557.0,169.7 L552.4,169.7    M34.6,150.1 L39.2,150.1 M557.0,150.1 L552.4,150.1 M34.6,130.4 L39.2,130.4 M557.0,130.4 L552.4,130.4    M34.6,110.8 L43.9,110.8 M557.0,110.8 L547.7,110.8  h0.01"/>	<g transform="translate(28.3,114.2)" style="stroke:none; fill:rgb(0,0,0); font-family:{}; font-size:12.00pt; text-anchor:end">
		<text><tspan>1.5</tspan></text>
	</g>
	<path d="M34.6,91.2 L39.2,91.2 M557.0,91.2 L552.4,91.2 M34.6,71.6 L39.2,71.6 M557.0,71.6 L552.4,71.6    M34.6,51.9 L39.2,51.9 M557.0,51.9 L552.4,51.9 M34.6,32.3 L39.2,32.3 M557.0,32.3 L552.4,32.3    M34.6,12.7 L43.9,12.7 M557.0,12.7 L547.7,12.7  h0.01"/>	<g transform="translate(28.3,16.1)" style="stroke:none; fill:rgb(0,0,0); font-family:{}; font-size:12.00pt; text-anchor:end">
		<text><tspan>2</tspan></text>
	</g>
	<path d="M34.6,405.2 L34.6,395.9 M34.6,12.7 L34.6,22.0  h0.01"/>	<g transform="translate(34.6,422.0)" style="stroke:none; fill:rgb(0,0,0); font-family:{}; font-size:12.00pt; text-anchor:middle">
		<text><tspan>-3</tspan></text>
	</g>
	<path d="M52.0,405.2 L52.0,400.6 M52.0,12.7 L52.0,17.3 M69.4,405.2 L69.4,400.6 M69.4,12.7 L69.4,17.3    M86.8,405.2 L86.8,400.6 M86.8,12.7 L86.8,17.3 M104.3,405.2 L104.3,400.6 M104.3,12.7 L104.3,17.3    M121.7,405.2 L121.7,395.9 M121.7,12.7 L121.7,22.0  h0.01"/>	<g transform="translate(121.7,422.0)" style="stroke:none; fill:rgb(0,0,0); font-family:{}; font-size:12.00pt; text-anchor:middle">
		<text><tspan>-2</tspan></text>
	</g>
	<path d="M139.1,405.2 L139.1,400.6 M139.1,12.7 L139.1,17.3 M156.5,405.2 L156.5,400.6 M156.5,12.7 L156.5,17.3    M173.9,405.2 L173.9,400.6 M173.9,12.7 L173.9,17.3 M191.3,405.2 L191.3,400.6 M191.3,12.7 L191.3,17.3    M208.7,405.2 L208.7,395.9 M208.7,12.7 L208.7,22.0  h0.01"/>	<g transform="translate(208.7,422.0)" style="stroke:none; fill:rgb(0,0,0); font-family:{}; font-size:12.00pt; text-anchor:middle">
		<text><tspan>-1</tspan></text>
	</g>
	<path d="M226.1,405.2 L226.1,400.6 M226.1,12.7 L226.1,17.3 M243.6,405.2 L243.6,400.6 M243.6,12.7 L243.6,17.3    M261.0,405.2 L261.0,400.6 M261.0,12.7 L261.0,17.3 M278.4,405.2 L278.4,400.6 M278.4,12.7 L278.4,17.3    M295.8,405.2 L295.8,395.9 M295.8,12.7 L295.8,22.0  h0.01"/>	<g transform="translate(295.8,422.0)" style="stroke:none; fill:rgb(0,0,0); font-family:{}; font-size:12.00pt; text-anchor:middle">
		<text><tspan>0</tspan></text>
	</g>
	<path d="M313.2,405.2 L313.2,400.6 M313.2,12.7 L313.2,17.3 M330.6,405.2 L330.6,400.6 M330.6,12.7 L330.6,17.3    M348.0,405.2 L348.0,400.6 M348.0,12.7 L348.0,17.3 M365.5,405.2 L365.5,400.6 M365.5,12.7 L365.5,17.3    M382.9,405.2 L382.9,395.9 M382.9,12.7 L382.9,22.0  h0.01"/>	<g transform="translate(382.9,422.0)" style="stroke:none; fill:rgb(0,0,0); font-family:{}; font-size:12.00pt; text-anchor:middle">
		<text><tspan>1</tspan></text>
	</g>
	<path d="M400.3,405.2 L400.3,400.6 M400.3,12.7 L400.3,17.3 M417.7,405.2 L417.7,400.6 M417.7,12.7 L417.7,17.3    M435.1,405.2 L435.1,400.6 M435.1,12.7 L435.1,17.3 M452.5,405.2 L452.5,400.6 M452.5,12.7 L452.5,17.3    M469.9,405.2 L469.9,395.9 M469.9,12.7 L469.9,22.0  h0.01"/>	<g transform="translate(469.9,422.0)" style="stroke:none; fill:rgb(0,0,0); font-family:{}; font-size:12.00pt; text-anchor:middle">
		<text><tspan>2</tspan></text>
	</g>
	<path d="M487.3,405.2 L487.3,400.6 M487.3,12.7 L487.3,17.3 M504.8,405.2 L504.8,400.6 M504.8,12.7 L504.8,17.3    M522.2,405.2 L522.2,400.6 M522.2,12.7 L522.2,17.3 M539.6,405.2 L539.6,400.6 M539.6,12.7 L539.6,17.3    M557.0,405.2 L557.0,395.9 M557.0,12.7 L557.0,22.0  h0.01"/>	<g transform="translate(557.0,422.0)" style="stroke:none; fill:rgb(0,0,0); font-family:{}; font-size:12.00pt; text-anchor:middle">
		<text><tspan>3</tspan></text>
	</g>
	<path d="M34.6,12.7 L34.6,405.2 L557.0,405.2 L557.0,12.7 L34.6,12.7 Z  h0.01"/></g>
	<g id="gnuplot_plot_1a"><title>gnuplot_plot_1a</title>
<g style="fill:none; color:white; stroke:currentColor; stroke-width:1.50; stroke-linecap:butt; stroke-linejoin:miter">
</g>
<g style="fill:none; color:red; stroke:currentColor; stroke-width:1.50; stroke-linecap:butt; stroke-linejoin:miter">
	<g transform="translate(506.2,29.5)" style="stroke:none; fill:black; font-family:{}; font-size:12.00pt; text-anchor:end">
		<text><tspan>R=0.25</tspan></text>
	</g>
	<path stroke="rgb(  0,   0, 255)" d="M512.5,26.1 L544.4,26.1 M34.6,405.2 L39.9,405.2 L45.2,405.2 L50.4,405.2 L55.7,405.2 L61.0,405.2    L66.3,405.2 L71.5,405.2 L76.8,405.2 L82.1,405.2 L87.4,405.2 L92.6,405.2 L97.9,405.2 L103.2,405.2    L108.5,405.2 L113.8,405.2 L119.0,405.2 L124.3,405.2 L129.6,405.2 L134.9,405.2 L140.1,405.2 L145.4,405.2    L150.7,405.2 L156.0,405.2 L161.2,405.2 L166.5,405.2 L171.8,405.2 L177.1,405.2 L182.3,405.2 L187.6,405.2    L192.9,405.2 L198.2,405.2 L203.5,405.2 L208.7,405.2 L214.0,405.2 L219.3,405.2 L224.6,405.2 L229.8,405.2    L235.1,405.2 L240.4,405.2 L245.7,405.2 L250.9,405.2 L256.2,405.2 L261.5,405.2 L266.8,405.2 L272.1,405.2    L277.3,140.7 L282.4,12.7 M309.2,12.7 L314.3,140.7 L319.5,405.2 L324.8,405.2 L330.1,405.2 L335.4,405.2    L340.7,405.2 L345.9,405.2 L351.2,405.2 L356.5,405.2 L361.8,405.2 L367.0,405.2 L372.3,405.2 L377.6,405.2    L382.9,405.2 L388.1,405.2 L393.4,405.2 L398.7,405.2 L404.0,405.2 L409.3,405.2 L414.5,405.2 L419.8,405.2    L425.1,405.2 L430.4,405.2 L435.6,405.2 L440.9,405.2 L446.2,405.2 L451.5,405.2 L456.7,405.2 L462.0,405.2    L467.3,405.2 L472.6,405.2 L477.8,405.2 L483.1,405.2 L488.4,405.2 L493.7,405.2 L499.0,405.2 L504.2,405.2    L509.5,405.2 L514.8,405.2 L520.1,405.2 L525.3,405.2 L530.6,405.2 L535.9,405.2 L541.2,405.2 L546.4,405.2    L551.7,405.2 L557.0,405.2  h0.01"/></g>
	</g>
	<g id="gnuplot_plot_2a"><title>gnuplot_plot_2a</title>
<g style="fill:none; color:red; stroke:currentColor; stroke-width:1.50; stroke-linecap:butt; stroke-linejoin:miter">
	<g transform="translate(506.2,42.9)" style="stroke:none; fill:black; font-family:{}; font-size:12.00pt; text-anchor:end">
		<text><tspan>R=0.5</tspan></text>
	</g>
	<path stroke="rgb(  0, 128,   0)" d="M512.5,39.5 L544.4,39.5 M34.6,405.2 L39.9,405.2 L45.2,405.2 L50.4,405.2 L55.7,405.2 L61.0,405.2    L66.3,405.2 L71.5,405.2 L76.8,405.2 L82.1,405.2 L87.4,405.2 L92.6,405.2 L97.9,405.2 L103.2,405.2    L108.5,405.2 L113.8,405.2 L119.0,405.2 L124.3,405.2 L129.6,405.2 L134.9,405.2 L140.1,405.2 L145.4,405.2    L150.7,405.2 L156.0,405.2 L161.2,405.2 L166.5,405.2 L171.8,405.2 L177.1,405.2 L182.3,405.2 L187.6,405.2    L192.9,405.2 L198.2,405.2 L203.5,405.2 L208.7,405.2 L214.0,405.2 L219.3,405.2 L224.6,405.2 L229.8,405.2    L235.1,405.2 L240.4,405.2 L245.7,405.2 L250.9,405.2 L256.2,301.1 L261.5,251.3 L266.8,219.0 L272.1,195.8    L277.3,178.9 L282.6,167.1 L287.9,159.5 L293.2,155.8 L298.4,155.8 L303.7,159.5 L309.0,167.1 L314.3,178.9    L319.5,195.8 L324.8,219.0 L330.1,251.3 L335.4,301.1 L340.7,405.2 L345.9,405.2 L351.2,405.2 L356.5,405.2    L361.8,405.2 L367.0,405.2 L372.3,405.2 L377.6,405.2 L382.9,405.2 L388.1,405.2 L393.4,405.2 L398.7,405.2    L404.0,405.2 L409.3,405.2 L414.5,405.2 L419.8,405.2 L425.1,405.2 L430.4,405.2 L435.6,405.2 L440.9,405.2    L446.2,405.2 L451.5,405.2 L456.7,405.2 L462.0,405.2 L467.3,405.2 L472.6,405.2 L477.8,405.2 L483.1,405.2    L488.4,405.2 L493.7,405.2 L499.0,405.2 L504.2,405.2 L509.5,405.2 L514.8,405.2 L520.1,405.2 L525.3,405.2    L530.6,405.2 L535.9,405.2 L541.2,405.2 L546.4,405.2 L551.7,405.2 L557.0,405.2  h0.01"/></g>
	</g>
	<g id="gnuplot_plot_3a"><title>gnuplot_plot_3a</title>
<g style="fill:none; color:red; stroke:currentColor; stroke-width:1.50; stroke-linecap:butt; stroke-linejoin:miter">
	<g transform="translate(506.2,56.3)" style="stroke:none; fill:black; font-family:{}; font-size:12.00pt; text-anchor:end">
		<text><tspan>R=1.0</tspan></text>
	</g>
	<path stroke="rgb(255,   0,   0)" d="M512.5,52.9 L544.4,52.9 M34.6,405.2 L39.9,405.2 L45.2,405.2 L50.4,405.2 L55.7,405.2 L61.0,405.2    L66.3,405.2 L71.5,405.2 L76.8,405.2 L82.1,405.2 L87.4,405.2 L92.6,405.2 L97.9,405.2 L103.2,405.2    L108.5,405.2 L113.8,405.2 L119.0,405.2 L124.3,405.2 L129.6,405.2 L134.9,405.2 L140.1,405.2 L145.4,405.2    L150.7,405.2 L156.0,405.2 L161.2,405.2 L166.5,405.2 L171.8,405.2 L177.1,405.2 L182.3,405.2 L187.6,405.2    L192.9,405.2 L198.2,405.2 L203.5,405.2 L208.7,405.2 L214.0,362.4 L219.3,345.6 L224.6,333.4 L229.8,323.6    L235.1,315.6 L240.4,308.8 L245.7,303.0 L250.9,298.1 L256.2,293.9 L261.5,290.4 L266.8,287.4 L272.1,285.0    L277.3,283.1 L282.6,281.7 L287.9,280.8 L293.2,280.3 L298.4,280.3 L303.7,280.8 L309.0,281.7 L314.3,283.1    L319.5,285.0 L324.8,287.4 L330.1,290.4 L335.4,293.9 L340.7,298.1 L345.9,303.0 L351.2,308.8 L356.5,315.6    L361.8,323.6 L367.0,333.4 L372.3,345.6 L377.6,362.4 L382.9,405.2 L388.1,405.2 L393.4,405.2 L398.7,405.2    L404.0,405.2 L409.3,405.2 L414.5,405.2 L419.8,405.2 L425.1,405.2 L430.4,405.2 L435.6,405.2 L440.9,405.2    L446.2,405.2 L451.5,405.2 L456.7,405.2 L462.0,405.2 L467.3,405.2 L472.6,405.2 L477.8,405.2 L483.1,405.2    L488.4,405.2 L493.7,405.2 L499.0,405.2 L504.2,405.2 L509.5,405.2 L514.8,405.2 L520.1,405.2 L525.3,405.2    L530.6,405.2 L535.9,405.2 L541.2,405.2 L546.4,405.2 L551.7,405.2 L557.0,405.2  h0.01"/></g>
	</g>
	<g id="gnuplot_plot_4a"><title>gnuplot_plot_4a</title>
<g style="fill:none; color:red; stroke:currentColor; stroke-width:1.50; stroke-linecap:butt; stroke-linejoin:miter">
	<g transform="translate(506.2,69.7)" style="stroke:none; fill:black; font-family:{}; font-size:12.00pt; text-anchor:end">
		<text><tspan>R=2.0</tspan></text>
	</g>
	<path stroke="rgb(  0, 191, 191)" d="M512.5,66.3 L544.4,66.3 M34.6,405.2 L39.9,405.2 L45.2,405.2 L50.4,405.2 L55.7,405.2 L61.0,405.2    L66.3,405.2 L71.5,405.2 L76.8,405.2 L82.1,405.2 L87.4,405.2 L92.6,405.2 L97.9,405.2 L103.2,405.2    L108.5,405.2 L113.8,405.2 L119.0,405.2 L124.3,394.4 L129.6,386.6 L134.9,381.3 L140.1,377.2 L145.4,373.7    L150.7,370.7 L156.0,368.0 L161.2,365.5 L166.5,363.4 L171.8,361.3 L177.1,359.5 L182.3,357.8 L187.6,356.2    L192.9,354.8 L198.2,353.5 L203.5,352.2 L208.7,351.1 L214.0,350.1 L219.3,349.1 L224.6,348.2 L229.8,347.4    L235.1,346.6 L240.4,346.0 L245.7,345.4 L250.9,344.8 L256.2,344.4 L261.5,344.0 L266.8,343.6 L272.1,343.3    L277.3,343.1 L282.6,342.9 L287.9,342.8 L293.2,342.7 L298.4,342.7 L303.7,342.8 L309.0,342.9 L314.3,343.1    L319.5,343.3 L324.8,343.6 L330.1,344.0 L335.4,344.4 L340.7,344.8 L345.9,345.4 L351.2,346.0 L356.5,346.6    L361.8,347.4 L367.0,348.2 L372.3,349.1 L377.6,350.1 L382.9,351.1 L388.1,352.2 L393.4,353.5 L398.7,354.8    L404.0,356.2 L409.3,357.8 L414.5,359.5 L419.8,361.3 L425.1,363.4 L430.4,365.5 L435.6,368.0 L440.9,370.7    L446.2,373.7 L451.5,377.2 L456.7,381.3 L462.0,386.6 L467.3,394.4 L472.6,405.2 L477.8,405.2 L483.1,405.2    L488.4,405.2 L493.7,405.2 L499.0,405.2 L504.2,405.2 L509.5,405.2 L514.8,405.2 L520.1,405.2 L525.3,405.2    L530.6,405.2 L535.9,405.2 L541.2,405.2 L546.4,405.2 L551.7,405.2 L557.0,405.2  h0.01"/></g>
	</g>
	<g id="gnuplot_plot_5a"><title>gnuplot_plot_5a</title>
<g style="fill:none; color:red; stroke:currentColor; stroke-width:1.50; stroke-linecap:butt; stroke-linejoin:miter">
	<g transform="translate(506.2,83.1)" style="stroke:none; fill:black; font-family:{}; font-size:12.00pt; text-anchor:end">
		<text><tspan>R=3.0</tspan></text>
	</g>
	<path stroke="rgb(191,   0, 191)" d="M512.5,79.7 L544.4,79.7 M34.6,405.2 L39.9,396.9 L45.2,393.5 L50.4,390.9 L55.7,388.8 L61.0,387.0    L66.3,385.3 L71.5,383.8 L76.8,382.5 L82.1,381.3 L87.4,380.1 L92.6,379.0 L97.9,378.0 L103.2,377.1    L108.5,376.2 L113.8,375.3 L119.0,374.5 L124.3,373.8 L129.6,373.1 L134.9,372.4 L140.1,371.8 L145.4,371.1    L150.7,370.6 L156.0,370.0 L161.2,369.5 L166.5,369.0 L171.8,368.5 L177.1,368.1 L182.3,367.7 L187.6,367.3    L192.9,366.9 L198.2,366.6 L203.5,366.2 L208.7,365.9 L214.0,365.6 L219.3,365.4 L224.6,365.1 L229.8,364.9    L235.1,364.7 L240.4,364.5 L245.7,364.3 L250.9,364.2 L256.2,364.0 L261.5,363.9 L266.8,363.8 L272.1,363.7    L277.3,363.7 L282.6,363.6 L287.9,363.6 L293.2,363.6 L298.4,363.6 L303.7,363.6 L309.0,363.6 L314.3,363.7    L319.5,363.7 L324.8,363.8 L330.1,363.9 L335.4,364.0 L340.7,364.2 L345.9,364.3 L351.2,364.5 L356.5,364.7    L361.8,364.9 L367.0,365.1 L372.3,365.4 L377.6,365.6 L382.9,365.9 L388.1,366.2 L393.4,366.6 L398.7,366.9    L404.0,367.3 L409.3,367.7 L414.5,368.1 L419.8,368.5 L425.1,369.0 L430.4,369.5 L435.6,370.0 L440.9,370.6    L446.2,371.1 L451.5,371.8 L456.7,372.4 L462.0,373.1 L467.3,373.8 L472.6,374.5 L477.8,375.3 L483.1,376.2    L488.4,377.1 L493.7,378.0 L499.0,379.0 L504.2,380.1 L509.5,381.3 L514.8,382.5 L520.1,383.8 L525.3,385.3    L530.6,387.0 L535.9,388.8 L541.2,390.9 L546.4,393.5 L551.7,396.9 L557.0,405.2  h0.01"/></g>
	</g>
<g style="fill:none; color:white; stroke:rgb(191,   0, 191); stroke-width:0.50; stroke-linecap:butt; stroke-linejoin:miter">
</g>
<g style="fill:none; color:black; stroke:currentColor; stroke-width:0.50; stroke-linecap:butt; stroke-linejoin:miter">
</g>
</g>
</svg>