<?xml version="1.0" encoding="UTF-8" standalone="no"?>
<!DOCTYPE svg PUBLIC "-//W3C//DTD SVG 1.1//EN" "http://www.w3.org/Graphics/SVG/1.1/DTD/svg11.dtd">
<svg viewBox="0 0 576 432" xmlns="http://www.w3.org/2000/svg" xmlns:xlink="http://www.w3.org/1999/xlink">

<title>Yule-Simon distribution PMF</title>
<desc>Produced by GNUPLOT 4.6 patchlevel 1 </desc>

<g id="gnuplot_canvas">

<rect x="0" y="0" width="576" height="432" fill="none"/>
<defs>

	<circle id="gpDot" r="0.5" stroke-width="0.5"/>
	<path id="gpPt0" stroke-width="0.333" stroke="currentColor" d="M-1,0 h2 M0,-1 v2"/>
	<path id="gpPt1" stroke-width="0.333" stroke="currentColor" d="M-1,-1 L1,1 M1,-1 L-1,1"/>
	<path id="gpPt2" stroke-width="0.333" stroke="currentColor" d="M-1,0 L1,0 M0,-1 L0,1 M-1,-1 L1,1 M-1,1 L1,-1"/>
	<rect id="gpPt3" stroke-width="0.333" stroke="currentColor" x="-1" y="-1" width="2" height="2"/>
	<rect id="gpPt4" stroke-width="0.333" stroke="currentColor" fill="currentColor" x="-1" y="-1" width="2" height="2"/>
	<circle id="gpPt5" stroke-width="0.333" stroke="currentColor" cx="0" cy="0" r="1"/>
	<use xlink:href="#gpPt5" id="gpPt6" fill="currentColor" stroke="none"/>
	<path id="gpPt7" stroke-width="0.333" stroke="currentColor" d="M0,-1.33 L-1.33,0.67 L1.33,0.67 z"/>
	<use xlink:href="#gpPt7" id="gpPt8" fill="currentColor" stroke="none"/>
	<use xlink:href="#gpPt7" id="gpPt9" stroke="currentColor" transform="rotate(180)"/>
	<use xlink:href="#gpPt9" id="gpPt10" fill="currentColor" stroke="none"/>
	<use xlink:href="#gpPt3" id="gpPt11" stroke="currentColor" transform="rotate(45)"/>
	<use xlink:href="#gpPt11" id="gpPt12" fill="currentColor" stroke="none"/>
</defs>
<g style="fill:none; color:white; stroke:currentColor; stroke-width:1.00; stroke-linecap:butt; stroke-linejoin:miter">
</g>
<g style="fill:none; color:white; stroke:currentColor; stroke-width:0.50; stroke-linecap:butt; stroke-linejoin:miter">
</g>
<g style="fill:none; color:black; stroke:currentColor; stroke-width:0.50; stroke-linecap:butt; stroke-linejoin:miter">
</g>
<g style="fill:none; color:gray; stroke:currentColor; stroke-width:0.50; stroke-linecap:butt; stroke-linejoin:miter">
	<path class="gridline" d="M30.8,393.6 L559.1,393.6  h0.01"/></g>
<g style="fill:none; color:black; stroke:currentColor; stroke-width:0.50; stroke-linecap:butt; stroke-linejoin:miter">
	<path d="M30.8,393.6 L39.2,393.6 M559.1,393.6 L550.7,393.6  h0.01"/>	<g transform="translate(25.2,396.6)" style="stroke:none; fill:rgb(0,0,0); font-family:{}; font-size:10.00pt; text-anchor:end">
		<text><tspan>10</tspan><tspan font-size="8.0pt" dy="-5.00pt">-4</tspan><tspan font-size="10.0pt" dy="5.00pt"/></text>
	</g>
	<path d="M30.8,393.6 L35.0,393.6 M559.1,393.6 L554.9,393.6 M30.8,364.8 L35.0,364.8 M559.1,364.8 L554.9,364.8    M30.8,348.0 L35.0,348.0 M559.1,348.0 L554.9,348.0 M30.8,336.1 L35.0,336.1 M559.1,336.1 L554.9,336.1    M30.8,326.8 L35.0,326.8 M559.1,326.8 L554.9,326.8 M30.8,319.2 L35.0,319.2 M559.1,319.2 L554.9,319.2    M30.8,312.8 L35.0,312.8 M559.1,312.8 L554.9,312.8 M30.8,307.3 L35.0,307.3 M559.1,307.3 L554.9,307.3    M30.8,302.4 L35.0,302.4 M559.1,302.4 L554.9,302.4  h0.01"/></g>
<g style="fill:none; color:gray; stroke:currentColor; stroke-width:0.50; stroke-linecap:butt; stroke-linejoin:miter">
	<path class="gridline" d="M30.8,298.0 L559.1,298.0  h0.01"/></g>
<g style="fill:none; color:black; stroke:currentColor; stroke-width:0.50; stroke-linecap:butt; stroke-linejoin:miter">
	<path d="M30.8,298.0 L39.2,298.0 M559.1,298.0 L550.7,298.0  h0.01"/>	<g transform="translate(25.2,301.0)" style="stroke:none; fill:rgb(0,0,0); font-family:{}; font-size:10.00pt; text-anchor:end">
		<text><tspan>10</tspan><tspan font-size="8.0pt" dy="-5.00pt">-3</tspan><tspan font-size="10.0pt" dy="5.00pt"/></text>
	</g>
	<path d="M30.8,298.0 L35.0,298.0 M559.1,298.0 L554.9,298.0 M30.8,269.3 L35.0,269.3 M559.1,269.3 L554.9,269.3    M30.8,252.4 L35.0,252.4 M559.1,252.4 L554.9,252.4 M30.8,240.5 L35.0,240.5 M559.1,240.5 L554.9,240.5    M30.8,231.2 L35.0,231.2 M559.1,231.2 L554.9,231.2 M30.8,223.7 L35.0,223.7 M559.1,223.7 L554.9,223.7    M30.8,217.3 L35.0,217.3 M559.1,217.3 L554.9,217.3 M30.8,211.7 L35.0,211.7 M559.1,211.7 L554.9,211.7    M30.8,206.8 L35.0,206.8 M559.1,206.8 L554.9,206.8  h0.01"/></g>
<g style="fill:none; color:gray; stroke:currentColor; stroke-width:0.50; stroke-linecap:butt; stroke-linejoin:miter">
	<path class="gridline" d="M30.8,202.5 L559.1,202.5  h0.01"/></g>
<g style="fill:none; color:black; stroke:currentColor; stroke-width:0.50; stroke-linecap:butt; stroke-linejoin:miter">
	<path d="M30.8,202.5 L39.2,202.5 M559.1,202.5 L550.7,202.5  h0.01"/>	<g transform="translate(25.2,205.5)" style="stroke:none; fill:rgb(0,0,0); font-family:{}; font-size:10.00pt; text-anchor:end">
		<text><tspan>10</tspan><tspan font-size="8.0pt" dy="-5.00pt">-2</tspan><tspan font-size="10.0pt" dy="5.00pt"/></text>
	</g>
	<path d="M30.8,202.5 L35.0,202.5 M559.1,202.5 L554.9,202.5 M30.8,173.7 L35.0,173.7 M559.1,173.7 L554.9,173.7    M30.8,156.8 L35.0,156.8 M559.1,156.8 L554.9,156.8 M30.8,144.9 L35.0,144.9 M559.1,144.9 L554.9,144.9    M30.8,135.6 L35.0,135.6 M559.1,135.6 L554.9,135.6 M30.8,128.1 L35.0,128.1 M559.1,128.1 L554.9,128.1    M30.8,121.7 L35.0,121.7 M559.1,121.7 L554.9,121.7 M30.8,116.1 L35.0,116.1 M559.1,116.1 L554.9,116.1    M30.8,111.2 L35.0,111.2 M559.1,111.2 L554.9,111.2  h0.01"/></g>
<g style="fill:none; color:gray; stroke:currentColor; stroke-width:0.50; stroke-linecap:butt; stroke-linejoin:miter">
	<path class="gridline" d="M30.8,106.9 L559.1,106.9  h0.01"/></g>
<g style="fill:none; color:black; stroke:currentColor; stroke-width:0.50; stroke-linecap:butt; stroke-linejoin:miter">
	<path d="M30.8,106.9 L39.2,106.9 M559.1,106.9 L550.7,106.9  h0.01"/>	<g transform="translate(25.2,109.9)" style="stroke:none; fill:rgb(0,0,0); font-family:{}; font-size:10.00pt; text-anchor:end">
		<text><tspan>10</tspan><tspan font-size="8.0pt" dy="-5.00pt">-1</tspan><tspan font-size="10.0pt" dy="5.00pt"/></text>
	</g>
	<path d="M30.8,106.9 L35.0,106.9 M559.1,106.9 L554.9,106.9 M30.8,78.1 L35.0,78.1 M559.1,78.1 L554.9,78.1    M30.8,61.3 L35.0,61.3 M559.1,61.3 L554.9,61.3 M30.8,49.3 L35.0,49.3 M559.1,49.3 L554.9,49.3    M30.8,40.1 L35.0,40.1 M559.1,40.1 L554.9,40.1 M30.8,32.5 L35.0,32.5 M559.1,32.5 L554.9,32.5    M30.8,26.1 L35.0,26.1 M559.1,26.1 L554.9,26.1 M30.8,20.6 L35.0,20.6 M559.1,20.6 L554.9,20.6    M30.8,15.7 L35.0,15.7 M559.1,15.7 L554.9,15.7  h0.01"/></g>
<g style="fill:none; color:gray; stroke:currentColor; stroke-width:0.50; stroke-linecap:butt; stroke-linejoin:miter">
	<path class="gridline" d="M30.8,11.3 L559.1,11.3  h0.01"/></g>
<g style="fill:none; color:black; stroke:currentColor; stroke-width:0.50; stroke-linecap:butt; stroke-linejoin:miter">
	<path d="M30.8,11.3 L39.2,11.3 M559.1,11.3 L550.7,11.3  h0.01"/>	<g transform="translate(25.2,14.3)" style="stroke:none; fill:rgb(0,0,0); font-family:{}; font-size:10.00pt; text-anchor:end">
		<text><tspan>10</tspan><tspan font-size="8.0pt" dy="-5.00pt">0</tspan><tspan font-size="10.0pt" dy="5.00pt"/></text>
	</g>
	<path d="M30.8,11.3 L35.0,11.3 M559.1,11.3 L554.9,11.3  h0.01"/></g>
<g style="fill:none; color:gray; stroke:currentColor; stroke-width:0.50; stroke-linecap:butt; stroke-linejoin:miter">
	<path class="gridline" d="M30.8,393.6 L30.8,11.3  h0.01"/></g>
<g style="fill:none; color:black; stroke:currentColor; stroke-width:0.50; stroke-linecap:butt; stroke-linejoin:miter">
	<path d="M30.8,393.6 L30.8,385.2 M30.8,11.3 L30.8,19.7  h0.01"/>	<g transform="translate(30.8,408.6)" style="stroke:none; fill:rgb(0,0,0); font-family:{}; font-size:10.00pt; text-anchor:middle">
		<text><tspan> 1</tspan></text>
	</g>
</g>
<g style="fill:none; color:gray; stroke:currentColor; stroke-width:0.50; stroke-linecap:butt; stroke-linejoin:miter">
	<path class="gridline" d="M153.0,393.6 L153.0,11.3  h0.01"/></g>
<g style="fill:none; color:black; stroke:currentColor; stroke-width:0.50; stroke-linecap:butt; stroke-linejoin:miter">
	<path d="M153.0,393.6 L153.0,385.2 M153.0,11.3 L153.0,19.7  h0.01"/>	<g transform="translate(153.0,408.6)" style="stroke:none; fill:rgb(0,0,0); font-family:{}; font-size:10.00pt; text-anchor:middle">
		<text><tspan> 2</tspan></text>
	</g>
</g>
<g style="fill:none; color:gray; stroke:currentColor; stroke-width:0.50; stroke-linecap:butt; stroke-linejoin:miter">
	<path class="gridline" d="M224.5,393.6 L224.5,11.3  h0.01"/></g>
<g style="fill:none; color:black; stroke:currentColor; stroke-width:0.50; stroke-linecap:butt; stroke-linejoin:miter">
	<path d="M224.5,393.6 L224.5,385.2 M224.5,11.3 L224.5,19.7  h0.01"/>	<g transform="translate(224.5,408.6)" style="stroke:none; fill:rgb(0,0,0); font-family:{}; font-size:10.00pt; text-anchor:middle">
		<text><tspan> 3</tspan></text>
	</g>
</g>
<g style="fill:none; color:gray; stroke:currentColor; stroke-width:0.50; stroke-linecap:butt; stroke-linejoin:miter">
	<path class="gridline" d="M275.3,393.6 L275.3,11.3  h0.01"/></g>
<g style="fill:none; color:black; stroke:currentColor; stroke-width:0.50; stroke-linecap:butt; stroke-linejoin:miter">
	<path d="M275.3,393.6 L275.3,385.2 M275.3,11.3 L275.3,19.7  h0.01"/>	<g transform="translate(275.3,408.6)" style="stroke:none; fill:rgb(0,0,0); font-family:{}; font-size:10.00pt; text-anchor:middle">
		<text><tspan> 4</tspan></text>
	</g>
</g>
<g style="fill:none; color:gray; stroke:currentColor; stroke-width:0.50; stroke-linecap:butt; stroke-linejoin:miter">
	<path class="gridline" d="M314.6,393.6 L314.6,11.3  h0.01"/></g>
<g style="fill:none; color:black; stroke:currentColor; stroke-width:0.50; stroke-linecap:butt; stroke-linejoin:miter">
	<path d="M314.6,393.6 L314.6,385.2 M314.6,11.3 L314.6,19.7  h0.01"/>	<g transform="translate(314.6,408.6)" style="stroke:none; fill:rgb(0,0,0); font-family:{}; font-size:10.00pt; text-anchor:middle">
		<text><tspan> 5</tspan></text>
	</g>
</g>
<g style="fill:none; color:gray; stroke:currentColor; stroke-width:0.50; stroke-linecap:butt; stroke-linejoin:miter">
	<path class="gridline" d="M346.8,393.6 L346.8,11.3  h0.01"/></g>
<g style="fill:none; color:black; stroke:currentColor; stroke-width:0.50; stroke-linecap:butt; stroke-linejoin:miter">
	<path d="M346.8,393.6 L346.8,385.2 M346.8,11.3 L346.8,19.7  h0.01"/>	<g transform="translate(346.8,408.6)" style="stroke:none; fill:rgb(0,0,0); font-family:{}; font-size:10.00pt; text-anchor:middle">
		<text><tspan> 6</tspan></text>
	</g>
</g>
<g style="fill:none; color:gray; stroke:currentColor; stroke-width:0.50; stroke-linecap:butt; stroke-linejoin:miter">
	<path class="gridline" d="M374.0,393.6 L374.0,11.3  h0.01"/></g>
<g style="fill:none; color:black; stroke:currentColor; stroke-width:0.50; stroke-linecap:butt; stroke-linejoin:miter">
	<path d="M374.0,393.6 L374.0,385.2 M374.0,11.3 L374.0,19.7  h0.01"/>	<g transform="translate(374.0,408.6)" style="stroke:none; fill:rgb(0,0,0); font-family:{}; font-size:10.00pt; text-anchor:middle">
		<text><tspan> 7</tspan></text>
	</g>
</g>
<g style="fill:none; color:gray; stroke:currentColor; stroke-width:0.50; stroke-linecap:butt; stroke-linejoin:miter">
	<path class="gridline" d="M397.5,393.6 L397.5,11.3  h0.01"/></g>
<g style="fill:none; color:black; stroke:currentColor; stroke-width:0.50; stroke-linecap:butt; stroke-linejoin:miter">
	<path d="M397.5,393.6 L397.5,385.2 M397.5,11.3 L397.5,19.7  h0.01"/>	<g transform="translate(397.5,408.6)" style="stroke:none; fill:rgb(0,0,0); font-family:{}; font-size:10.00pt; text-anchor:middle">
		<text><tspan> 8</tspan></text>
	</g>
</g>
<g style="fill:none; color:gray; stroke:currentColor; stroke-width:0.50; stroke-linecap:butt; stroke-linejoin:miter">
	<path class="gridline" d="M418.3,393.6 L418.3,11.3  h0.01"/></g>
<g style="fill:none; color:black; stroke:currentColor; stroke-width:0.50; stroke-linecap:butt; stroke-linejoin:miter">
	<path d="M418.3,393.6 L418.3,385.2 M418.3,11.3 L418.3,19.7  h0.01"/>	<g transform="translate(418.3,408.6)" style="stroke:none; fill:rgb(0,0,0); font-family:{}; font-size:10.00pt; text-anchor:middle">
		<text><tspan> 9</tspan></text>
	</g>
</g>
<g style="fill:none; color:gray; stroke:currentColor; stroke-width:0.50; stroke-linecap:butt; stroke-linejoin:miter">
	<path class="gridline" d="M436.9,393.6 L436.9,11.3  h0.01"/></g>
<g style="fill:none; color:black; stroke:currentColor; stroke-width:0.50; stroke-linecap:butt; stroke-linejoin:miter">
	<path d="M436.9,393.6 L436.9,385.2 M436.9,11.3 L436.9,19.7  h0.01"/>	<g transform="translate(436.9,408.6)" style="stroke:none; fill:rgb(0,0,0); font-family:{}; font-size:10.00pt; text-anchor:middle">
		<text><tspan>10</tspan></text>
	</g>
</g>
<g style="fill:none; color:gray; stroke:currentColor; stroke-width:0.50; stroke-linecap:butt; stroke-linejoin:miter">
	<path class="gridline" d="M559.1,393.6 L559.1,11.3  h0.01"/></g>
<g style="fill:none; color:black; stroke:currentColor; stroke-width:0.50; stroke-linecap:butt; stroke-linejoin:miter">
	<path d="M559.1,393.6 L559.1,385.2 M559.1,11.3 L559.1,19.7  h0.01"/>	<g transform="translate(559.1,408.6)" style="stroke:none; fill:rgb(0,0,0); font-family:{}; font-size:10.00pt; text-anchor:middle">
		<text><tspan>20</tspan></text>
	</g>
	<path d="M30.8,11.3 L30.8,393.6 L559.1,393.6 L559.1,11.3 L30.8,11.3 Z  h0.01"/>	<g transform="translate(294.9,426.6)" style="stroke:none; fill:rgb(0,0,0); font-family:{}; font-size:10.00pt; text-anchor:middle">
		<text><tspan>k</tspan></text>
	</g>
</g>
	<g id="gnuplot_plot_1a"><title>gnuplot_plot_1a</title>
<g style="fill:none; color:white; stroke:currentColor; stroke-width:1.50; stroke-linecap:butt; stroke-linejoin:miter">
</g>
<g style="fill:none; color:red; stroke:currentColor; stroke-width:1.50; stroke-linecap:butt; stroke-linejoin:miter">
	<g transform="translate(513.9,26.3)" style="stroke:none; fill:black; font-family:{}; font-size:10.00pt; text-anchor:end">
		<text><tspan style="font-family:Symbol">ρ</tspan><tspan style="font-family:{}">=0.25</tspan></text>
	</g>
	<path stroke="rgb(  0,   0, 255)" d="M519.5,23.3 L547.9,23.3 M30.8,78.1 L153.0,111.8 L224.5,131.9 L275.3,146.4 L314.6,157.7 L346.8,166.9    L374.0,174.8 L397.5,181.6 L418.3,187.6 L436.9,193.0 L453.7,197.9 L469.0,202.4 L483.1,206.5 L496.2,210.3    L508.4,213.9 L519.7,217.2 L530.4,220.3 L540.5,223.2 L550.1,226.0 L559.1,228.7  h0.01"/>	<use xlink:href="#gpPt11" transform="translate(30.8,78.1) scale(2.00)" color="rgb(  0,   0, 255)"/>
	<use xlink:href="#gpPt11" transform="translate(153.0,111.8) scale(2.00)" color="rgb(  0,   0, 255)"/>
	<use xlink:href="#gpPt11" transform="translate(224.5,131.9) scale(2.00)" color="rgb(  0,   0, 255)"/>
	<use xlink:href="#gpPt11" transform="translate(275.3,146.4) scale(2.00)" color="rgb(  0,   0, 255)"/>
	<use xlink:href="#gpPt11" transform="translate(314.6,157.7) scale(2.00)" color="rgb(  0,   0, 255)"/>
	<use xlink:href="#gpPt11" transform="translate(346.8,166.9) scale(2.00)" color="rgb(  0,   0, 255)"/>
	<use xlink:href="#gpPt11" transform="translate(374.0,174.8) scale(2.00)" color="rgb(  0,   0, 255)"/>
	<use xlink:href="#gpPt11" transform="translate(397.5,181.6) scale(2.00)" color="rgb(  0,   0, 255)"/>
	<use xlink:href="#gpPt11" transform="translate(418.3,187.6) scale(2.00)" color="rgb(  0,   0, 255)"/>
	<use xlink:href="#gpPt11" transform="translate(436.9,193.0) scale(2.00)" color="rgb(  0,   0, 255)"/>
	<use xlink:href="#gpPt11" transform="translate(453.7,197.9) scale(2.00)" color="rgb(  0,   0, 255)"/>
	<use xlink:href="#gpPt11" transform="translate(469.0,202.4) scale(2.00)" color="rgb(  0,   0, 255)"/>
	<use xlink:href="#gpPt11" transform="translate(483.1,206.5) scale(2.00)" color="rgb(  0,   0, 255)"/>
	<use xlink:href="#gpPt11" transform="translate(496.2,210.3) scale(2.00)" color="rgb(  0,   0, 255)"/>
	<use xlink:href="#gpPt11" transform="translate(508.4,213.9) scale(2.00)" color="rgb(  0,   0, 255)"/>
	<use xlink:href="#gpPt11" transform="translate(519.7,217.2) scale(2.00)" color="rgb(  0,   0, 255)"/>
	<use xlink:href="#gpPt11" transform="translate(530.4,220.3) scale(2.00)" color="rgb(  0,   0, 255)"/>
	<use xlink:href="#gpPt11" transform="translate(540.5,223.2) scale(2.00)" color="rgb(  0,   0, 255)"/>
	<use xlink:href="#gpPt11" transform="translate(550.1,226.0) scale(2.00)" color="rgb(  0,   0, 255)"/>
	<use xlink:href="#gpPt11" transform="translate(559.1,228.7) scale(2.00)" color="rgb(  0,   0, 255)"/>
	<use xlink:href="#gpPt11" transform="translate(533.7,23.3) scale(2.00)" color="rgb(  0,   0, 255)"/>
</g>
	</g>
	<g id="gnuplot_plot_2a"><title>gnuplot_plot_2a</title>
<g style="fill:none; color:red; stroke:currentColor; stroke-width:1.50; stroke-linecap:butt; stroke-linejoin:miter">
	<g transform="translate(513.9,38.3)" style="stroke:none; fill:black; font-family:{}; font-size:10.00pt; text-anchor:end">
		<text><tspan style="font-family:Symbol">ρ</tspan><tspan style="font-family:{}">=0.5</tspan></text>
	</g>
	<path stroke="rgb(  0, 128,   0)" d="M519.5,35.3 L547.9,35.3 M30.8,56.9 L153.0,94.9 L224.5,118.2 L275.3,135.0 L314.6,148.2 L346.8,159.1    L374.0,168.4 L397.5,176.4 L418.3,183.6 L436.9,190.0 L453.7,195.8 L469.0,201.1 L483.1,205.9 L496.2,210.5    L508.4,214.7 L519.7,218.7 L530.4,222.4 L540.5,225.9 L550.1,229.2 L559.1,232.4  h0.01"/>	<use xlink:href="#gpPt11" transform="translate(30.8,56.9) scale(2.00)" color="rgb(  0, 128,   0)"/>
	<use xlink:href="#gpPt11" transform="translate(153.0,94.9) scale(2.00)" color="rgb(  0, 128,   0)"/>
	<use xlink:href="#gpPt11" transform="translate(224.5,118.2) scale(2.00)" color="rgb(  0, 128,   0)"/>
	<use xlink:href="#gpPt11" transform="translate(275.3,135.0) scale(2.00)" color="rgb(  0, 128,   0)"/>
	<use xlink:href="#gpPt11" transform="translate(314.6,148.2) scale(2.00)" color="rgb(  0, 128,   0)"/>
	<use xlink:href="#gpPt11" transform="translate(346.8,159.1) scale(2.00)" color="rgb(  0, 128,   0)"/>
	<use xlink:href="#gpPt11" transform="translate(374.0,168.4) scale(2.00)" color="rgb(  0, 128,   0)"/>
	<use xlink:href="#gpPt11" transform="translate(397.5,176.4) scale(2.00)" color="rgb(  0, 128,   0)"/>
	<use xlink:href="#gpPt11" transform="translate(418.3,183.6) scale(2.00)" color="rgb(  0, 128,   0)"/>
	<use xlink:href="#gpPt11" transform="translate(436.9,190.0) scale(2.00)" color="rgb(  0, 128,   0)"/>
	<use xlink:href="#gpPt11" transform="translate(453.7,195.8) scale(2.00)" color="rgb(  0, 128,   0)"/>
	<use xlink:href="#gpPt11" transform="translate(469.0,201.1) scale(2.00)" color="rgb(  0, 128,   0)"/>
	<use xlink:href="#gpPt11" transform="translate(483.1,205.9) scale(2.00)" color="rgb(  0, 128,   0)"/>
	<use xlink:href="#gpPt11" transform="translate(496.2,210.5) scale(2.00)" color="rgb(  0, 128,   0)"/>
	<use xlink:href="#gpPt11" transform="translate(508.4,214.7) scale(2.00)" color="rgb(  0, 128,   0)"/>
	<use xlink:href="#gpPt11" transform="translate(519.7,218.7) scale(2.00)" color="rgb(  0, 128,   0)"/>
	<use xlink:href="#gpPt11" transform="translate(530.4,222.4) scale(2.00)" color="rgb(  0, 128,   0)"/>
	<use xlink:href="#gpPt11" transform="translate(540.5,225.9) scale(2.00)" color="rgb(  0, 128,   0)"/>
	<use xlink:href="#gpPt11" transform="translate(550.1,229.2) scale(2.00)" color="rgb(  0, 128,   0)"/>
	<use xlink:href="#gpPt11" transform="translate(559.1,232.4) scale(2.00)" color="rgb(  0, 128,   0)"/>
	<use xlink:href="#gpPt11" transform="translate(533.7,35.3) scale(2.00)" color="rgb(  0, 128,   0)"/>
</g>
	</g>
	<g id="gnuplot_plot_3a"><title>gnuplot_plot_3a</title>
<g style="fill:none; color:red; stroke:currentColor; stroke-width:1.50; stroke-linecap:butt; stroke-linejoin:miter">
	<g transform="translate(513.9,50.3)" style="stroke:none; fill:black; font-family:{}; font-size:10.00pt; text-anchor:end">
		<text><tspan style="font-family:Symbol">ρ</tspan><tspan style="font-family:{}">=1</tspan></text>
	</g>
	<path stroke="rgb(255,   0,   0)" d="M519.5,47.3 L547.9,47.3 M30.8,40.1 L153.0,85.7 L224.5,114.4 L275.3,135.6 L314.6,152.5 L346.8,166.4    L374.0,178.4 L397.5,188.8 L418.3,198.1 L436.9,206.4 L453.7,214.0 L469.0,220.9 L483.1,227.3 L496.2,233.2    L508.4,238.8 L519.7,244.0 L530.4,248.9 L540.5,253.5 L550.1,257.9 L559.1,262.0  h0.01"/>	<use xlink:href="#gpPt11" transform="translate(30.8,40.1) scale(2.00)" color="rgb(255,   0,   0)"/>
	<use xlink:href="#gpPt11" transform="translate(153.0,85.7) scale(2.00)" color="rgb(255,   0,   0)"/>
	<use xlink:href="#gpPt11" transform="translate(224.5,114.4) scale(2.00)" color="rgb(255,   0,   0)"/>
	<use xlink:href="#gpPt11" transform="translate(275.3,135.6) scale(2.00)" color="rgb(255,   0,   0)"/>
	<use xlink:href="#gpPt11" transform="translate(314.6,152.5) scale(2.00)" color="rgb(255,   0,   0)"/>
	<use xlink:href="#gpPt11" transform="translate(346.8,166.4) scale(2.00)" color="rgb(255,   0,   0)"/>
	<use xlink:href="#gpPt11" transform="translate(374.0,178.4) scale(2.00)" color="rgb(255,   0,   0)"/>
	<use xlink:href="#gpPt11" transform="translate(397.5,188.8) scale(2.00)" color="rgb(255,   0,   0)"/>
	<use xlink:href="#gpPt11" transform="translate(418.3,198.1) scale(2.00)" color="rgb(255,   0,   0)"/>
	<use xlink:href="#gpPt11" transform="translate(436.9,206.4) scale(2.00)" color="rgb(255,   0,   0)"/>
	<use xlink:href="#gpPt11" transform="translate(453.7,214.0) scale(2.00)" color="rgb(255,   0,   0)"/>
	<use xlink:href="#gpPt11" transform="translate(469.0,220.9) scale(2.00)" color="rgb(255,   0,   0)"/>
	<use xlink:href="#gpPt11" transform="translate(483.1,227.3) scale(2.00)" color="rgb(255,   0,   0)"/>
	<use xlink:href="#gpPt11" transform="translate(496.2,233.2) scale(2.00)" color="rgb(255,   0,   0)"/>
	<use xlink:href="#gpPt11" transform="translate(508.4,238.8) scale(2.00)" color="rgb(255,   0,   0)"/>
	<use xlink:href="#gpPt11" transform="translate(519.7,244.0) scale(2.00)" color="rgb(255,   0,   0)"/>
	<use xlink:href="#gpPt11" transform="translate(530.4,248.9) scale(2.00)" color="rgb(255,   0,   0)"/>
	<use xlink:href="#gpPt11" transform="translate(540.5,253.5) scale(2.00)" color="rgb(255,   0,   0)"/>
	<use xlink:href="#gpPt11" transform="translate(550.1,257.9) scale(2.00)" color="rgb(255,   0,   0)"/>
	<use xlink:href="#gpPt11" transform="translate(559.1,262.0) scale(2.00)" color="rgb(255,   0,   0)"/>
	<use xlink:href="#gpPt11" transform="translate(533.7,47.3) scale(2.00)" color="rgb(255,   0,   0)"/>
</g>
	</g>
	<g id="gnuplot_plot_4a"><title>gnuplot_plot_4a</title>
<g style="fill:none; color:red; stroke:currentColor; stroke-width:1.50; stroke-linecap:butt; stroke-linejoin:miter">
	<g transform="translate(513.9,62.3)" style="stroke:none; fill:black; font-family:{}; font-size:10.00pt; text-anchor:end">
		<text><tspan style="font-family:Symbol">ρ</tspan><tspan style="font-family:{}">=2</tspan></text>
	</g>
	<path stroke="rgb(  0, 191, 191)" d="M519.5,59.3 L547.9,59.3 M30.8,28.1 L153.0,85.7 L224.5,123.7 L275.3,152.5 L314.6,175.7 L346.8,195.2    L374.0,212.0 L397.5,226.8 L418.3,240.1 L436.9,252.0 L453.7,262.9 L469.0,272.9 L483.1,282.2 L496.2,290.8    L508.4,298.8 L519.7,306.4 L530.4,313.5 L540.5,320.3 L550.1,326.7 L559.1,332.8  h0.01"/>	<use xlink:href="#gpPt11" transform="translate(30.8,28.1) scale(2.00)" color="rgb(  0, 191, 191)"/>
	<use xlink:href="#gpPt11" transform="translate(153.0,85.7) scale(2.00)" color="rgb(  0, 191, 191)"/>
	<use xlink:href="#gpPt11" transform="translate(224.5,123.7) scale(2.00)" color="rgb(  0, 191, 191)"/>
	<use xlink:href="#gpPt11" transform="translate(275.3,152.5) scale(2.00)" color="rgb(  0, 191, 191)"/>
	<use xlink:href="#gpPt11" transform="translate(314.6,175.7) scale(2.00)" color="rgb(  0, 191, 191)"/>
	<use xlink:href="#gpPt11" transform="translate(346.8,195.2) scale(2.00)" color="rgb(  0, 191, 191)"/>
	<use xlink:href="#gpPt11" transform="translate(374.0,212.0) scale(2.00)" color="rgb(  0, 191, 191)"/>
	<use xlink:href="#gpPt11" transform="translate(397.5,226.8) scale(2.00)" color="rgb(  0, 191, 191)"/>
	<use xlink:href="#gpPt11" transform="translate(418.3,240.1) scale(2.00)" color="rgb(  0, 191, 191)"/>
	<use xlink:href="#gpPt11" transform="translate(436.9,252.0) scale(2.00)" color="rgb(  0, 191, 191)"/>
	<use xlink:href="#gpPt11" transform="translate(453.7,262.9) scale(2.00)" color="rgb(  0, 191, 191)"/>
	<use xlink:href="#gpPt11" transform="translate(469.0,272.9) scale(2.00)" color="rgb(  0, 191, 191)"/>
	<use xlink:href="#gpPt11" transform="translate(483.1,282.2) scale(2.00)" color="rgb(  0, 191, 191)"/>
	<use xlink:href="#gpPt11" transform="translate(496.2,290.8) scale(2.00)" color="rgb(  0, 191, 191)"/>
	<use xlink:href="#gpPt11" transform="translate(508.4,298.8) scale(2.00)" color="rgb(  0, 191, 191)"/>
	<use xlink:href="#gpPt11" transform="translate(519.7,306.4) scale(2.00)" color="rgb(  0, 191, 191)"/>
	<use xlink:href="#gpPt11" transform="translate(530.4,313.5) scale(2.00)" color="rgb(  0, 191, 191)"/>
	<use xlink:href="#gpPt11" transform="translate(540.5,320.3) scale(2.00)" color="rgb(  0, 191, 191)"/>
	<use xlink:href="#gpPt11" transform="translate(550.1,326.7) scale(2.00)" color="rgb(  0, 191, 191)"/>
	<use xlink:href="#gpPt11" transform="translate(559.1,332.8) scale(2.00)" color="rgb(  0, 191, 191)"/>
	<use xlink:href="#gpPt11" transform="translate(533.7,59.3) scale(2.00)" color="rgb(  0, 191, 191)"/>
</g>
	</g>
	<g id="gnuplot_plot_5a"><title>gnuplot_plot_5a</title>
<g style="fill:none; color:red; stroke:currentColor; stroke-width:1.50; stroke-linecap:butt; stroke-linejoin:miter">
	<g transform="translate(513.9,74.3)" style="stroke:none; fill:black; font-family:{}; font-size:10.00pt; text-anchor:end">
		<text><tspan style="font-family:Symbol">ρ</tspan><tspan style="font-family:{}">=4</tspan></text>
	</g>
	<path stroke="rgb(191,   0, 191)" d="M519.5,71.3 L547.9,71.3 M30.8,20.6 L153.0,94.9 L224.5,146.9 L275.3,187.6 L314.6,221.3 L346.8,250.1    L374.0,275.2 L397.5,297.6 L418.3,317.8 L436.9,336.1 L453.7,352.9 L469.0,368.5 L483.1,382.9 L493.4,393.6     h0.01"/>	<use xlink:href="#gpPt11" transform="translate(30.8,20.6) scale(2.00)" color="rgb(191,   0, 191)"/>
	<use xlink:href="#gpPt11" transform="translate(153.0,94.9) scale(2.00)" color="rgb(191,   0, 191)"/>
	<use xlink:href="#gpPt11" transform="translate(224.5,146.9) scale(2.00)" color="rgb(191,   0, 191)"/>
	<use xlink:href="#gpPt11" transform="translate(275.3,187.6) scale(2.00)" color="rgb(191,   0, 191)"/>
	<use xlink:href="#gpPt11" transform="translate(314.6,221.3) scale(2.00)" color="rgb(191,   0, 191)"/>
	<use xlink:href="#gpPt11" transform="translate(346.8,250.1) scale(2.00)" color="rgb(191,   0, 191)"/>
	<use xlink:href="#gpPt11" transform="translate(374.0,275.2) scale(2.00)" color="rgb(191,   0, 191)"/>
	<use xlink:href="#gpPt11" transform="translate(397.5,297.6) scale(2.00)" color="rgb(191,   0, 191)"/>
	<use xlink:href="#gpPt11" transform="translate(418.3,317.8) scale(2.00)" color="rgb(191,   0, 191)"/>
	<use xlink:href="#gpPt11" transform="translate(436.9,336.1) scale(2.00)" color="rgb(191,   0, 191)"/>
	<use xlink:href="#gpPt11" transform="translate(453.7,352.9) scale(2.00)" color="rgb(191,   0, 191)"/>
	<use xlink:href="#gpPt11" transform="translate(469.0,368.5) scale(2.00)" color="rgb(191,   0, 191)"/>
	<use xlink:href="#gpPt11" transform="translate(483.1,382.9) scale(2.00)" color="rgb(191,   0, 191)"/>
	<use xlink:href="#gpPt11" transform="translate(533.7,71.3) scale(2.00)" color="rgb(191,   0, 191)"/>
</g>
	</g>
<g style="fill:none; color:white; stroke:rgb(191,   0, 191); stroke-width:0.50; stroke-linecap:butt; stroke-linejoin:miter">
</g>
<g style="fill:none; color:black; stroke:currentColor; stroke-width:0.50; stroke-linecap:butt; stroke-linejoin:miter">
</g>
</g>
</svg>